<mxfile host="app.diagrams.net" modified="2023-04-12T20:50:09.770Z" agent="Mozilla/5.0 (Windows NT 10.0; Win64; x64) AppleWebKit/537.36 (KHTML, like Gecko) Chrome/111.0.0.0 Safari/537.36" etag="NjEPE2Ne0CaK4zY-rUA0" version="21.1.6" type="github">
  <diagram name="Page-1" id="HfRqamg5RS0QHsvj_mwQ">
    <mxGraphModel dx="5630" dy="3647" grid="1" gridSize="10" guides="1" tooltips="1" connect="1" arrows="1" fold="1" page="1" pageScale="1" pageWidth="850" pageHeight="1100" math="0" shadow="0">
      <root>
        <mxCell id="0" />
        <mxCell id="1" parent="0" />
        <mxCell id="9QXBRPPnokm7t-XI1kbM-1" value="" style="group" parent="1" vertex="1" connectable="0">
          <mxGeometry x="-330" y="-450" width="1540" height="807" as="geometry" />
        </mxCell>
        <mxCell id="9QXBRPPnokm7t-XI1kbM-2" value="" style="verticalLabelPosition=bottom;verticalAlign=top;html=1;shape=mxgraph.basic.rect;fillColor2=none;strokeWidth=1;size=20;indent=5;fillColor=#0066CC;" parent="9QXBRPPnokm7t-XI1kbM-1" vertex="1">
          <mxGeometry x="240" width="10" height="200" as="geometry" />
        </mxCell>
        <mxCell id="9QXBRPPnokm7t-XI1kbM-3" value="" style="verticalLabelPosition=bottom;verticalAlign=top;html=1;shape=mxgraph.basic.rect;fillColor2=none;strokeWidth=1;size=20;indent=5;fillColor=#0066CC;" parent="9QXBRPPnokm7t-XI1kbM-1" vertex="1">
          <mxGeometry x="270" width="10" height="200" as="geometry" />
        </mxCell>
        <mxCell id="9QXBRPPnokm7t-XI1kbM-4" value="" style="verticalLabelPosition=bottom;verticalAlign=top;html=1;shape=mxgraph.basic.rect;fillColor2=none;strokeWidth=1;size=20;indent=5;fillColor=#0066CC;" parent="9QXBRPPnokm7t-XI1kbM-1" vertex="1">
          <mxGeometry x="270" y="240" width="10" height="100" as="geometry" />
        </mxCell>
        <mxCell id="9QXBRPPnokm7t-XI1kbM-5" value="" style="verticalLabelPosition=bottom;verticalAlign=top;html=1;shape=mxgraph.basic.rect;fillColor2=none;strokeWidth=1;size=20;indent=5;fillColor=#0066CC;" parent="9QXBRPPnokm7t-XI1kbM-1" vertex="1">
          <mxGeometry x="300" y="240" width="20" height="100" as="geometry" />
        </mxCell>
        <mxCell id="9QXBRPPnokm7t-XI1kbM-6" value="" style="verticalLabelPosition=bottom;verticalAlign=top;html=1;shape=mxgraph.basic.rect;fillColor2=none;strokeWidth=1;size=20;indent=5;fillColor=#0066CC;" parent="9QXBRPPnokm7t-XI1kbM-1" vertex="1">
          <mxGeometry x="340" y="240" width="20" height="100" as="geometry" />
        </mxCell>
        <mxCell id="9QXBRPPnokm7t-XI1kbM-7" value="" style="verticalLabelPosition=bottom;verticalAlign=top;html=1;shape=mxgraph.basic.rect;fillColor2=none;strokeWidth=1;size=20;indent=5;fillColor=#0066CC;" parent="9QXBRPPnokm7t-XI1kbM-1" vertex="1">
          <mxGeometry x="340" y="380" width="20" height="100" as="geometry" />
        </mxCell>
        <mxCell id="9QXBRPPnokm7t-XI1kbM-8" value="" style="verticalLabelPosition=bottom;verticalAlign=top;html=1;shape=mxgraph.basic.rect;fillColor2=none;strokeWidth=1;size=20;indent=5;fillColor=#0066CC;" parent="9QXBRPPnokm7t-XI1kbM-1" vertex="1">
          <mxGeometry x="380" y="380" width="40" height="100" as="geometry" />
        </mxCell>
        <mxCell id="9QXBRPPnokm7t-XI1kbM-9" value="" style="verticalLabelPosition=bottom;verticalAlign=top;html=1;shape=mxgraph.basic.rect;fillColor2=none;strokeWidth=1;size=20;indent=5;fillColor=#0066CC;" parent="9QXBRPPnokm7t-XI1kbM-1" vertex="1">
          <mxGeometry x="440" y="380" width="40" height="100" as="geometry" />
        </mxCell>
        <mxCell id="9QXBRPPnokm7t-XI1kbM-10" value="" style="verticalLabelPosition=bottom;verticalAlign=top;html=1;shape=mxgraph.basic.rect;fillColor2=none;strokeWidth=1;size=20;indent=5;fillColor=#0066CC;" parent="9QXBRPPnokm7t-XI1kbM-1" vertex="1">
          <mxGeometry x="440" y="520" width="40" height="50" as="geometry" />
        </mxCell>
        <mxCell id="9QXBRPPnokm7t-XI1kbM-11" value="" style="verticalLabelPosition=bottom;verticalAlign=top;html=1;shape=mxgraph.basic.rect;fillColor2=none;strokeWidth=1;size=20;indent=5;fillColor=#0066CC;" parent="9QXBRPPnokm7t-XI1kbM-1" vertex="1">
          <mxGeometry x="500" y="520" width="60" height="50" as="geometry" />
        </mxCell>
        <mxCell id="9QXBRPPnokm7t-XI1kbM-12" value="" style="verticalLabelPosition=bottom;verticalAlign=top;html=1;shape=mxgraph.basic.rect;fillColor2=none;strokeWidth=1;size=20;indent=5;fillColor=#0066CC;" parent="9QXBRPPnokm7t-XI1kbM-1" vertex="1">
          <mxGeometry x="580" y="520" width="60" height="50" as="geometry" />
        </mxCell>
        <mxCell id="9QXBRPPnokm7t-XI1kbM-13" value="" style="verticalLabelPosition=bottom;verticalAlign=top;html=1;shape=mxgraph.basic.rect;fillColor2=none;strokeWidth=1;size=20;indent=5;fillColor=#0066CC;" parent="9QXBRPPnokm7t-XI1kbM-1" vertex="1">
          <mxGeometry x="580" y="610" width="60" height="30" as="geometry" />
        </mxCell>
        <mxCell id="9QXBRPPnokm7t-XI1kbM-14" value="" style="verticalLabelPosition=bottom;verticalAlign=top;html=1;shape=mxgraph.basic.rect;fillColor2=none;strokeWidth=1;size=20;indent=5;fillColor=#0066CC;" parent="9QXBRPPnokm7t-XI1kbM-1" vertex="1">
          <mxGeometry x="660" y="610" width="100" height="30" as="geometry" />
        </mxCell>
        <mxCell id="9QXBRPPnokm7t-XI1kbM-15" value="" style="verticalLabelPosition=bottom;verticalAlign=top;html=1;shape=mxgraph.basic.rect;fillColor2=none;strokeWidth=1;size=20;indent=5;fillColor=#0066CC;" parent="9QXBRPPnokm7t-XI1kbM-1" vertex="1">
          <mxGeometry x="780" y="610" width="100" height="30" as="geometry" />
        </mxCell>
        <mxCell id="9QXBRPPnokm7t-XI1kbM-16" value="" style="verticalLabelPosition=bottom;verticalAlign=top;html=1;shape=mxgraph.basic.rect;fillColor2=none;strokeWidth=1;size=20;indent=5;fillColor=#00CC66;" parent="9QXBRPPnokm7t-XI1kbM-1" vertex="1">
          <mxGeometry x="790" y="520" width="60" height="50" as="geometry" />
        </mxCell>
        <mxCell id="9QXBRPPnokm7t-XI1kbM-17" value="" style="verticalLabelPosition=bottom;verticalAlign=top;html=1;shape=mxgraph.basic.rect;fillColor2=none;strokeWidth=1;size=20;indent=5;fillColor=#00CC66;" parent="9QXBRPPnokm7t-XI1kbM-1" vertex="1">
          <mxGeometry x="870" y="520" width="60" height="50" as="geometry" />
        </mxCell>
        <mxCell id="9QXBRPPnokm7t-XI1kbM-18" value="" style="verticalLabelPosition=bottom;verticalAlign=top;html=1;shape=mxgraph.basic.rect;fillColor2=none;strokeWidth=1;size=20;indent=5;fillColor=#00CCCC;" parent="9QXBRPPnokm7t-XI1kbM-1" vertex="1">
          <mxGeometry x="730" y="520" width="60" height="50" as="geometry" />
        </mxCell>
        <mxCell id="9QXBRPPnokm7t-XI1kbM-19" value="" style="verticalLabelPosition=bottom;verticalAlign=top;html=1;shape=mxgraph.basic.rect;fillColor2=none;strokeWidth=1;size=20;indent=5;fillColor=#00CC66;" parent="9QXBRPPnokm7t-XI1kbM-1" vertex="1">
          <mxGeometry x="950" y="520" width="60" height="50" as="geometry" />
        </mxCell>
        <mxCell id="9QXBRPPnokm7t-XI1kbM-20" value="" style="verticalLabelPosition=bottom;verticalAlign=top;html=1;shape=mxgraph.basic.rect;fillColor2=none;strokeWidth=1;size=20;indent=5;fillColor=#00CC66;" parent="9QXBRPPnokm7t-XI1kbM-1" vertex="1">
          <mxGeometry x="970" y="380" width="40" height="100" as="geometry" />
        </mxCell>
        <mxCell id="9QXBRPPnokm7t-XI1kbM-21" value="" style="verticalLabelPosition=bottom;verticalAlign=top;html=1;shape=mxgraph.basic.rect;fillColor2=none;strokeWidth=1;size=20;indent=5;fillColor=#00CC66;" parent="9QXBRPPnokm7t-XI1kbM-1" vertex="1">
          <mxGeometry x="1030" y="380" width="40" height="100" as="geometry" />
        </mxCell>
        <mxCell id="9QXBRPPnokm7t-XI1kbM-22" value="" style="verticalLabelPosition=bottom;verticalAlign=top;html=1;shape=mxgraph.basic.rect;fillColor2=none;strokeWidth=1;size=20;indent=5;fillColor=#00CC66;" parent="9QXBRPPnokm7t-XI1kbM-1" vertex="1">
          <mxGeometry x="1090" y="380" width="40" height="100" as="geometry" />
        </mxCell>
        <mxCell id="9QXBRPPnokm7t-XI1kbM-23" value="" style="verticalLabelPosition=bottom;verticalAlign=top;html=1;shape=mxgraph.basic.rect;fillColor2=none;strokeWidth=1;size=20;indent=5;fillColor=#00CCCC;" parent="9QXBRPPnokm7t-XI1kbM-1" vertex="1">
          <mxGeometry x="930" y="380" width="40" height="100" as="geometry" />
        </mxCell>
        <mxCell id="9QXBRPPnokm7t-XI1kbM-24" value="" style="verticalLabelPosition=bottom;verticalAlign=top;html=1;shape=mxgraph.basic.rect;fillColor2=none;strokeWidth=1;size=20;indent=5;fillColor=#00CC66;" parent="9QXBRPPnokm7t-XI1kbM-1" vertex="1">
          <mxGeometry x="1110" y="240" width="20" height="100" as="geometry" />
        </mxCell>
        <mxCell id="9QXBRPPnokm7t-XI1kbM-25" value="" style="verticalLabelPosition=bottom;verticalAlign=top;html=1;shape=mxgraph.basic.rect;fillColor2=none;strokeWidth=1;size=20;indent=5;fillColor=#00CC66;" parent="9QXBRPPnokm7t-XI1kbM-1" vertex="1">
          <mxGeometry x="1150" y="240" width="20" height="100" as="geometry" />
        </mxCell>
        <mxCell id="9QXBRPPnokm7t-XI1kbM-26" value="" style="verticalLabelPosition=bottom;verticalAlign=top;html=1;shape=mxgraph.basic.rect;fillColor2=none;strokeWidth=1;size=20;indent=5;fillColor=#00CCCC;" parent="9QXBRPPnokm7t-XI1kbM-1" vertex="1">
          <mxGeometry x="1090" y="240" width="20" height="100" as="geometry" />
        </mxCell>
        <mxCell id="9QXBRPPnokm7t-XI1kbM-27" value="" style="verticalLabelPosition=bottom;verticalAlign=top;html=1;shape=mxgraph.basic.rect;fillColor2=none;strokeWidth=1;size=20;indent=5;fillColor=#00CC66;" parent="9QXBRPPnokm7t-XI1kbM-1" vertex="1">
          <mxGeometry x="1190" y="240" width="20" height="100" as="geometry" />
        </mxCell>
        <mxCell id="9QXBRPPnokm7t-XI1kbM-28" value="" style="verticalLabelPosition=bottom;verticalAlign=top;html=1;shape=mxgraph.basic.rect;fillColor2=none;strokeWidth=1;size=20;indent=5;fillColor=#00CC66;" parent="9QXBRPPnokm7t-XI1kbM-1" vertex="1">
          <mxGeometry x="1200" width="10" height="200" as="geometry" />
        </mxCell>
        <mxCell id="9QXBRPPnokm7t-XI1kbM-29" value="" style="verticalLabelPosition=bottom;verticalAlign=top;html=1;shape=mxgraph.basic.rect;fillColor2=none;strokeWidth=1;size=20;indent=5;fillColor=#00CC66;" parent="9QXBRPPnokm7t-XI1kbM-1" vertex="1">
          <mxGeometry x="1230" width="10" height="200" as="geometry" />
        </mxCell>
        <mxCell id="9QXBRPPnokm7t-XI1kbM-30" value="" style="verticalLabelPosition=bottom;verticalAlign=top;html=1;shape=mxgraph.basic.rect;fillColor2=none;strokeWidth=1;size=20;indent=5;fillColor=#00CCCC;" parent="9QXBRPPnokm7t-XI1kbM-1" vertex="1">
          <mxGeometry x="1190" width="10" height="200" as="geometry" />
        </mxCell>
        <mxCell id="9QXBRPPnokm7t-XI1kbM-31" value="" style="verticalLabelPosition=bottom;verticalAlign=top;html=1;shape=mxgraph.basic.rect;fillColor2=none;strokeWidth=1;size=20;indent=5;fillColor=#00CC66;" parent="9QXBRPPnokm7t-XI1kbM-1" vertex="1">
          <mxGeometry x="1260" width="10" height="200" as="geometry" />
        </mxCell>
        <mxCell id="9QXBRPPnokm7t-XI1kbM-32" value="" style="endArrow=none;html=1;rounded=0;strokeColor=#00CC66;strokeWidth=2;" parent="9QXBRPPnokm7t-XI1kbM-1" edge="1">
          <mxGeometry width="50" height="50" relative="1" as="geometry">
            <mxPoint x="1290" y="200" as="sourcePoint" />
            <mxPoint x="1290" as="targetPoint" />
          </mxGeometry>
        </mxCell>
        <mxCell id="9QXBRPPnokm7t-XI1kbM-33" value="" style="endArrow=none;html=1;rounded=0;strokeColor=#0066CC;strokeWidth=2;" parent="9QXBRPPnokm7t-XI1kbM-1" edge="1">
          <mxGeometry width="50" height="50" relative="1" as="geometry">
            <mxPoint x="219.99999999999977" y="200" as="sourcePoint" />
            <mxPoint x="219.99999999999977" as="targetPoint" />
          </mxGeometry>
        </mxCell>
        <mxCell id="9QXBRPPnokm7t-XI1kbM-34" value="" style="rounded=0;whiteSpace=wrap;html=1;fillColor=none;dashed=1;" parent="9QXBRPPnokm7t-XI1kbM-1" vertex="1">
          <mxGeometry x="265" y="30" width="20" height="140" as="geometry" />
        </mxCell>
        <mxCell id="9QXBRPPnokm7t-XI1kbM-35" value="" style="rounded=0;whiteSpace=wrap;html=1;fillColor=none;dashed=1;" parent="9QXBRPPnokm7t-XI1kbM-1" vertex="1">
          <mxGeometry x="335" y="260" width="30" height="60" as="geometry" />
        </mxCell>
        <mxCell id="9QXBRPPnokm7t-XI1kbM-36" value="" style="rounded=0;whiteSpace=wrap;html=1;fillColor=none;dashed=1;" parent="9QXBRPPnokm7t-XI1kbM-1" vertex="1">
          <mxGeometry x="435" y="400" width="50" height="60" as="geometry" />
        </mxCell>
        <mxCell id="9QXBRPPnokm7t-XI1kbM-37" value="" style="rounded=0;whiteSpace=wrap;html=1;fillColor=none;dashed=1;" parent="9QXBRPPnokm7t-XI1kbM-1" vertex="1">
          <mxGeometry x="575" y="530" width="70" height="30" as="geometry" />
        </mxCell>
        <mxCell id="9QXBRPPnokm7t-XI1kbM-38" value="" style="endArrow=classic;html=1;rounded=0;strokeWidth=4;strokeColor=#999999;" parent="9QXBRPPnokm7t-XI1kbM-1" edge="1">
          <mxGeometry width="50" height="50" relative="1" as="geometry">
            <mxPoint x="650" y="544.8800000000001" as="sourcePoint" />
            <mxPoint x="715" y="544.44" as="targetPoint" />
          </mxGeometry>
        </mxCell>
        <mxCell id="9QXBRPPnokm7t-XI1kbM-39" value="" style="endArrow=classic;html=1;rounded=0;strokeWidth=4;strokeColor=#999999;" parent="9QXBRPPnokm7t-XI1kbM-1" edge="1">
          <mxGeometry width="50" height="50" relative="1" as="geometry">
            <mxPoint x="510" y="429.7700000000001" as="sourcePoint" />
            <mxPoint x="920" y="428.89" as="targetPoint" />
          </mxGeometry>
        </mxCell>
        <mxCell id="9QXBRPPnokm7t-XI1kbM-40" value="" style="endArrow=classic;html=1;rounded=0;strokeWidth=4;strokeColor=#999999;" parent="9QXBRPPnokm7t-XI1kbM-1" edge="1">
          <mxGeometry width="50" height="50" relative="1" as="geometry">
            <mxPoint x="383" y="289.4500000000001" as="sourcePoint" />
            <mxPoint x="1070" y="289" as="targetPoint" />
          </mxGeometry>
        </mxCell>
        <mxCell id="9QXBRPPnokm7t-XI1kbM-41" value="" style="endArrow=classic;html=1;rounded=0;strokeWidth=4;strokeColor=#999999;" parent="9QXBRPPnokm7t-XI1kbM-1" edge="1">
          <mxGeometry width="50" height="50" relative="1" as="geometry">
            <mxPoint x="300" y="109.02000000000004" as="sourcePoint" />
            <mxPoint x="1160" y="109" as="targetPoint" />
          </mxGeometry>
        </mxCell>
        <mxCell id="9QXBRPPnokm7t-XI1kbM-42" value="" style="endArrow=classic;html=1;rounded=0;strokeColor=#0000FF;strokeWidth=4;" parent="9QXBRPPnokm7t-XI1kbM-1" edge="1">
          <mxGeometry width="50" height="50" relative="1" as="geometry">
            <mxPoint x="560" y="544.58" as="sourcePoint" />
            <mxPoint x="580" y="545" as="targetPoint" />
          </mxGeometry>
        </mxCell>
        <mxCell id="9QXBRPPnokm7t-XI1kbM-43" value="" style="endArrow=classic;html=1;rounded=0;strokeColor=#0000FF;strokeWidth=4;" parent="9QXBRPPnokm7t-XI1kbM-1" edge="1">
          <mxGeometry width="50" height="50" relative="1" as="geometry">
            <mxPoint x="480" y="544.58" as="sourcePoint" />
            <mxPoint x="500" y="544.9999999999999" as="targetPoint" />
          </mxGeometry>
        </mxCell>
        <mxCell id="9QXBRPPnokm7t-XI1kbM-44" value="" style="endArrow=classic;html=1;rounded=0;strokeColor=#0000FF;strokeWidth=4;" parent="9QXBRPPnokm7t-XI1kbM-1" edge="1">
          <mxGeometry width="50" height="50" relative="1" as="geometry">
            <mxPoint x="360" y="429.58000000000004" as="sourcePoint" />
            <mxPoint x="380" y="429.9999999999999" as="targetPoint" />
          </mxGeometry>
        </mxCell>
        <mxCell id="9QXBRPPnokm7t-XI1kbM-45" value="" style="endArrow=classic;html=1;rounded=0;strokeColor=#0000FF;strokeWidth=4;" parent="9QXBRPPnokm7t-XI1kbM-1" edge="1">
          <mxGeometry width="50" height="50" relative="1" as="geometry">
            <mxPoint x="419.99999999999994" y="429.58000000000004" as="sourcePoint" />
            <mxPoint x="439.99999999999994" y="429.9999999999999" as="targetPoint" />
          </mxGeometry>
        </mxCell>
        <mxCell id="9QXBRPPnokm7t-XI1kbM-46" value="" style="endArrow=classic;html=1;rounded=0;strokeColor=#0000FF;strokeWidth=4;" parent="9QXBRPPnokm7t-XI1kbM-1" edge="1">
          <mxGeometry width="50" height="50" relative="1" as="geometry">
            <mxPoint x="280" y="289.58000000000004" as="sourcePoint" />
            <mxPoint x="300" y="289.9999999999999" as="targetPoint" />
          </mxGeometry>
        </mxCell>
        <mxCell id="9QXBRPPnokm7t-XI1kbM-47" value="" style="endArrow=classic;html=1;rounded=0;strokeColor=#0000FF;strokeWidth=4;" parent="9QXBRPPnokm7t-XI1kbM-1" edge="1">
          <mxGeometry width="50" height="50" relative="1" as="geometry">
            <mxPoint x="220" y="109.58000000000004" as="sourcePoint" />
            <mxPoint x="240" y="109.99999999999989" as="targetPoint" />
          </mxGeometry>
        </mxCell>
        <mxCell id="9QXBRPPnokm7t-XI1kbM-48" value="" style="endArrow=classic;html=1;rounded=0;strokeColor=#0000FF;strokeWidth=4;" parent="9QXBRPPnokm7t-XI1kbM-1" edge="1">
          <mxGeometry width="50" height="50" relative="1" as="geometry">
            <mxPoint x="250" y="109.58000000000004" as="sourcePoint" />
            <mxPoint x="270" y="109.99999999999989" as="targetPoint" />
          </mxGeometry>
        </mxCell>
        <mxCell id="9QXBRPPnokm7t-XI1kbM-49" value="" style="endArrow=classic;html=1;rounded=0;strokeColor=#0000FF;strokeWidth=4;" parent="9QXBRPPnokm7t-XI1kbM-1" edge="1">
          <mxGeometry width="50" height="50" relative="1" as="geometry">
            <mxPoint x="320" y="289.58000000000004" as="sourcePoint" />
            <mxPoint x="340" y="289.9999999999999" as="targetPoint" />
          </mxGeometry>
        </mxCell>
        <mxCell id="9QXBRPPnokm7t-XI1kbM-50" value="" style="endArrow=classic;html=1;rounded=0;strokeColor=#0000FF;strokeWidth=4;" parent="9QXBRPPnokm7t-XI1kbM-1" edge="1">
          <mxGeometry width="50" height="50" relative="1" as="geometry">
            <mxPoint x="640" y="624.2900000000001" as="sourcePoint" />
            <mxPoint x="660" y="624.7099999999999" as="targetPoint" />
          </mxGeometry>
        </mxCell>
        <mxCell id="9QXBRPPnokm7t-XI1kbM-51" value="" style="endArrow=classic;html=1;rounded=0;strokeColor=#0000FF;strokeWidth=4;" parent="9QXBRPPnokm7t-XI1kbM-1" edge="1">
          <mxGeometry width="50" height="50" relative="1" as="geometry">
            <mxPoint x="760" y="624.5799999999999" as="sourcePoint" />
            <mxPoint x="780" y="625" as="targetPoint" />
          </mxGeometry>
        </mxCell>
        <mxCell id="9QXBRPPnokm7t-XI1kbM-52" value="" style="endArrow=classic;html=1;rounded=0;strokeColor=#0000FF;strokeWidth=4;" parent="9QXBRPPnokm7t-XI1kbM-1" edge="1">
          <mxGeometry width="50" height="50" relative="1" as="geometry">
            <mxPoint x="850.0000000000001" y="548.9999999999999" as="sourcePoint" />
            <mxPoint x="870.0000000000001" y="549.42" as="targetPoint" />
          </mxGeometry>
        </mxCell>
        <mxCell id="9QXBRPPnokm7t-XI1kbM-53" value="" style="endArrow=classic;html=1;rounded=0;strokeColor=#0000FF;strokeWidth=4;" parent="9QXBRPPnokm7t-XI1kbM-1" edge="1">
          <mxGeometry width="50" height="50" relative="1" as="geometry">
            <mxPoint x="930.0000000000001" y="550" as="sourcePoint" />
            <mxPoint x="950.0000000000001" y="550.4200000000001" as="targetPoint" />
          </mxGeometry>
        </mxCell>
        <mxCell id="9QXBRPPnokm7t-XI1kbM-54" value="" style="endArrow=classic;html=1;rounded=0;strokeColor=#0000FF;strokeWidth=4;" parent="9QXBRPPnokm7t-XI1kbM-1" edge="1">
          <mxGeometry width="50" height="50" relative="1" as="geometry">
            <mxPoint x="1010" y="429.5799999999999" as="sourcePoint" />
            <mxPoint x="1030" y="430" as="targetPoint" />
          </mxGeometry>
        </mxCell>
        <mxCell id="9QXBRPPnokm7t-XI1kbM-55" value="" style="endArrow=classic;html=1;rounded=0;strokeColor=#0000FF;strokeWidth=4;" parent="9QXBRPPnokm7t-XI1kbM-1" edge="1">
          <mxGeometry width="50" height="50" relative="1" as="geometry">
            <mxPoint x="1070" y="429.58000000000004" as="sourcePoint" />
            <mxPoint x="1090" y="429.9999999999999" as="targetPoint" />
          </mxGeometry>
        </mxCell>
        <mxCell id="9QXBRPPnokm7t-XI1kbM-56" value="" style="endArrow=classic;html=1;rounded=0;strokeColor=#0000FF;strokeWidth=4;" parent="9QXBRPPnokm7t-XI1kbM-1" edge="1">
          <mxGeometry width="50" height="50" relative="1" as="geometry">
            <mxPoint x="1130" y="289.47" as="sourcePoint" />
            <mxPoint x="1150" y="289.8899999999999" as="targetPoint" />
          </mxGeometry>
        </mxCell>
        <mxCell id="9QXBRPPnokm7t-XI1kbM-57" value="" style="endArrow=classic;html=1;rounded=0;strokeColor=#0000FF;strokeWidth=4;" parent="9QXBRPPnokm7t-XI1kbM-1" edge="1">
          <mxGeometry width="50" height="50" relative="1" as="geometry">
            <mxPoint x="1170" y="289.47" as="sourcePoint" />
            <mxPoint x="1190" y="289.8899999999999" as="targetPoint" />
          </mxGeometry>
        </mxCell>
        <mxCell id="9QXBRPPnokm7t-XI1kbM-58" value="" style="endArrow=classic;html=1;rounded=0;strokeColor=#0000FF;strokeWidth=4;" parent="9QXBRPPnokm7t-XI1kbM-1" edge="1">
          <mxGeometry width="50" height="50" relative="1" as="geometry">
            <mxPoint x="1210" y="110" as="sourcePoint" />
            <mxPoint x="1230" y="110.41999999999985" as="targetPoint" />
          </mxGeometry>
        </mxCell>
        <mxCell id="9QXBRPPnokm7t-XI1kbM-59" value="" style="endArrow=classic;html=1;rounded=0;strokeColor=#0000FF;strokeWidth=4;" parent="9QXBRPPnokm7t-XI1kbM-1" edge="1">
          <mxGeometry width="50" height="50" relative="1" as="geometry">
            <mxPoint x="1240" y="110" as="sourcePoint" />
            <mxPoint x="1260" y="110.41999999999985" as="targetPoint" />
          </mxGeometry>
        </mxCell>
        <mxCell id="9QXBRPPnokm7t-XI1kbM-60" value="" style="endArrow=classic;html=1;rounded=0;strokeColor=#009999;strokeWidth=4;" parent="9QXBRPPnokm7t-XI1kbM-1" edge="1">
          <mxGeometry width="50" height="50" relative="1" as="geometry">
            <mxPoint x="1270" y="110" as="sourcePoint" />
            <mxPoint x="1290" y="110.41999999999985" as="targetPoint" />
          </mxGeometry>
        </mxCell>
        <mxCell id="9QXBRPPnokm7t-XI1kbM-61" value="" style="endArrow=classic;html=1;rounded=0;strokeColor=#FF0000;strokeWidth=4;" parent="9QXBRPPnokm7t-XI1kbM-1" edge="1">
          <mxGeometry width="50" height="50" relative="1" as="geometry">
            <mxPoint x="274.72" y="200" as="sourcePoint" />
            <mxPoint x="275" y="230" as="targetPoint" />
          </mxGeometry>
        </mxCell>
        <mxCell id="9QXBRPPnokm7t-XI1kbM-62" value="" style="endArrow=classic;html=1;rounded=0;strokeColor=#FF0000;strokeWidth=4;" parent="9QXBRPPnokm7t-XI1kbM-1" edge="1">
          <mxGeometry width="50" height="50" relative="1" as="geometry">
            <mxPoint x="349.7200000000001" y="340" as="sourcePoint" />
            <mxPoint x="350" y="370" as="targetPoint" />
          </mxGeometry>
        </mxCell>
        <mxCell id="9QXBRPPnokm7t-XI1kbM-63" value="" style="endArrow=classic;html=1;rounded=0;strokeColor=#FF0000;strokeWidth=4;" parent="9QXBRPPnokm7t-XI1kbM-1" edge="1">
          <mxGeometry width="50" height="50" relative="1" as="geometry">
            <mxPoint x="459.7200000000001" y="480" as="sourcePoint" />
            <mxPoint x="460" y="510" as="targetPoint" />
          </mxGeometry>
        </mxCell>
        <mxCell id="9QXBRPPnokm7t-XI1kbM-64" value="" style="endArrow=classic;html=1;rounded=0;strokeColor=#00FF00;strokeWidth=4;" parent="9QXBRPPnokm7t-XI1kbM-1" edge="1">
          <mxGeometry width="50" height="50" relative="1" as="geometry">
            <mxPoint x="989.72" y="520" as="sourcePoint" />
            <mxPoint x="989.72" y="490" as="targetPoint" />
          </mxGeometry>
        </mxCell>
        <mxCell id="9QXBRPPnokm7t-XI1kbM-65" value="" style="endArrow=classic;html=1;rounded=0;strokeColor=#00FF00;strokeWidth=4;" parent="9QXBRPPnokm7t-XI1kbM-1" edge="1">
          <mxGeometry width="50" height="50" relative="1" as="geometry">
            <mxPoint x="1119.41" y="380" as="sourcePoint" />
            <mxPoint x="1119.41" y="350" as="targetPoint" />
          </mxGeometry>
        </mxCell>
        <mxCell id="9QXBRPPnokm7t-XI1kbM-66" value="" style="endArrow=classic;html=1;rounded=0;strokeColor=#00FF00;strokeWidth=4;" parent="9QXBRPPnokm7t-XI1kbM-1" edge="1">
          <mxGeometry width="50" height="50" relative="1" as="geometry">
            <mxPoint x="1204.41" y="240" as="sourcePoint" />
            <mxPoint x="1204.41" y="210" as="targetPoint" />
          </mxGeometry>
        </mxCell>
        <mxCell id="9QXBRPPnokm7t-XI1kbM-67" value="" style="endArrow=none;dashed=1;html=1;dashPattern=1 3;strokeWidth=2;rounded=0;" parent="9QXBRPPnokm7t-XI1kbM-1" edge="1">
          <mxGeometry width="50" height="50" relative="1" as="geometry">
            <mxPoint x="172.26" y="170" as="sourcePoint" />
            <mxPoint x="220" y="200" as="targetPoint" />
          </mxGeometry>
        </mxCell>
        <mxCell id="9QXBRPPnokm7t-XI1kbM-68" value="" style="endArrow=none;dashed=1;html=1;dashPattern=1 3;strokeWidth=2;rounded=0;" parent="9QXBRPPnokm7t-XI1kbM-1" edge="1">
          <mxGeometry width="50" height="50" relative="1" as="geometry">
            <mxPoint x="172.26000000000022" y="23.5" as="sourcePoint" />
            <mxPoint x="220" as="targetPoint" />
          </mxGeometry>
        </mxCell>
        <mxCell id="9QXBRPPnokm7t-XI1kbM-69" value="" style="endArrow=none;dashed=1;html=1;dashPattern=1 3;strokeWidth=2;rounded=0;entryX=0;entryY=1;entryDx=0;entryDy=0;" parent="9QXBRPPnokm7t-XI1kbM-1" edge="1">
          <mxGeometry width="50" height="50" relative="1" as="geometry">
            <mxPoint x="1290.0000000000002" y="200" as="sourcePoint" />
            <mxPoint x="1330" y="170" as="targetPoint" />
          </mxGeometry>
        </mxCell>
        <mxCell id="9QXBRPPnokm7t-XI1kbM-70" value="" style="endArrow=none;dashed=1;html=1;dashPattern=1 3;strokeWidth=2;rounded=0;" parent="9QXBRPPnokm7t-XI1kbM-1" edge="1">
          <mxGeometry width="50" height="50" relative="1" as="geometry">
            <mxPoint x="1290" as="sourcePoint" />
            <mxPoint x="1337.7399999999998" y="30" as="targetPoint" />
          </mxGeometry>
        </mxCell>
        <mxCell id="9QXBRPPnokm7t-XI1kbM-71" value="" style="endArrow=classic;html=1;rounded=0;strokeColor=#FF0000;strokeWidth=4;" parent="9QXBRPPnokm7t-XI1kbM-1" edge="1">
          <mxGeometry width="50" height="50" relative="1" as="geometry">
            <mxPoint x="609.1700000000003" y="570" as="sourcePoint" />
            <mxPoint x="609.45" y="600" as="targetPoint" />
          </mxGeometry>
        </mxCell>
        <mxCell id="9QXBRPPnokm7t-XI1kbM-72" value="" style="endArrow=classic;html=1;rounded=0;strokeColor=#00FF00;strokeWidth=4;" parent="9QXBRPPnokm7t-XI1kbM-1" edge="1">
          <mxGeometry width="50" height="50" relative="1" as="geometry">
            <mxPoint x="819.1700000000003" y="610" as="sourcePoint" />
            <mxPoint x="819.1700000000003" y="580" as="targetPoint" />
          </mxGeometry>
        </mxCell>
        <mxCell id="9QXBRPPnokm7t-XI1kbM-73" value="3x3 conv, RELU" style="text;html=1;resizable=0;autosize=1;align=left;verticalAlign=middle;points=[];fillColor=none;strokeColor=none;rounded=0;dashed=1;fontSize=18;" parent="9QXBRPPnokm7t-XI1kbM-1" vertex="1">
          <mxGeometry x="1385" y="350" width="140" height="30" as="geometry" />
        </mxCell>
        <mxCell id="9QXBRPPnokm7t-XI1kbM-74" value="" style="rounded=0;whiteSpace=wrap;html=1;opacity=70;strokeWidth=3;strokeColor=#0000CC;fillColor=none;dashed=1;" parent="9QXBRPPnokm7t-XI1kbM-1" vertex="1">
          <mxGeometry x="210" y="-10" width="440" height="610" as="geometry" />
        </mxCell>
        <mxCell id="9QXBRPPnokm7t-XI1kbM-75" value="Encoder path" style="text;html=1;resizable=0;autosize=1;align=left;verticalAlign=middle;points=[];fillColor=none;strokeColor=none;rounded=0;dashed=1;fontSize=19;fontStyle=1" parent="9QXBRPPnokm7t-XI1kbM-1" vertex="1">
          <mxGeometry x="220" y="575" width="140" height="30" as="geometry" />
        </mxCell>
        <mxCell id="9QXBRPPnokm7t-XI1kbM-76" value="" style="rounded=0;whiteSpace=wrap;html=1;opacity=70;strokeWidth=3;strokeColor=#00CC00;fillColor=none;dashed=1;" parent="9QXBRPPnokm7t-XI1kbM-1" vertex="1">
          <mxGeometry x="720" y="-10" width="580" height="610" as="geometry" />
        </mxCell>
        <mxCell id="9QXBRPPnokm7t-XI1kbM-77" value="Decoder path" style="text;html=1;resizable=0;autosize=1;align=left;verticalAlign=middle;points=[];fillColor=none;strokeColor=none;rounded=0;dashed=1;fontSize=19;fontStyle=1" parent="9QXBRPPnokm7t-XI1kbM-1" vertex="1">
          <mxGeometry x="1160" y="570" width="140" height="30" as="geometry" />
        </mxCell>
        <mxCell id="9QXBRPPnokm7t-XI1kbM-78" value="" style="endArrow=classic;html=1;rounded=0;strokeWidth=4;strokeColor=#999999;" parent="9QXBRPPnokm7t-XI1kbM-1" edge="1">
          <mxGeometry width="50" height="50" relative="1" as="geometry">
            <mxPoint x="1344.77" y="319.44" as="sourcePoint" />
            <mxPoint x="1379.9991666666667" y="319.44" as="targetPoint" />
            <Array as="points">
              <mxPoint x="1364.77" y="319.94" />
            </Array>
          </mxGeometry>
        </mxCell>
        <mxCell id="9QXBRPPnokm7t-XI1kbM-79" value="" style="endArrow=classic;html=1;rounded=0;strokeColor=#0000FF;strokeWidth=4;" parent="9QXBRPPnokm7t-XI1kbM-1" edge="1">
          <mxGeometry width="50" height="50" relative="1" as="geometry">
            <mxPoint x="1348.33" y="364.6" as="sourcePoint" />
            <mxPoint x="1379.9966666666667" y="365.33500000000015" as="targetPoint" />
          </mxGeometry>
        </mxCell>
        <mxCell id="9QXBRPPnokm7t-XI1kbM-80" value="" style="endArrow=classic;html=1;rounded=0;strokeColor=#FF0000;strokeWidth=4;" parent="9QXBRPPnokm7t-XI1kbM-1" edge="1">
          <mxGeometry width="50" height="50" relative="1" as="geometry">
            <mxPoint x="1366" y="381" as="sourcePoint" />
            <mxPoint x="1366.2766666666662" y="418.5" as="targetPoint" />
          </mxGeometry>
        </mxCell>
        <mxCell id="9QXBRPPnokm7t-XI1kbM-81" value="" style="endArrow=classic;html=1;rounded=0;strokeColor=#00FF00;strokeWidth=4;" parent="9QXBRPPnokm7t-XI1kbM-1" edge="1">
          <mxGeometry width="50" height="50" relative="1" as="geometry">
            <mxPoint x="1366" y="460" as="sourcePoint" />
            <mxPoint x="1365.8333333333333" y="425" as="targetPoint" />
          </mxGeometry>
        </mxCell>
        <mxCell id="9QXBRPPnokm7t-XI1kbM-82" value="" style="endArrow=classic;html=1;rounded=0;strokeColor=#009999;strokeWidth=4;" parent="9QXBRPPnokm7t-XI1kbM-1" edge="1">
          <mxGeometry width="50" height="50" relative="1" as="geometry">
            <mxPoint x="1350" y="485" as="sourcePoint" />
            <mxPoint x="1379.9966666666667" y="485.36499999999967" as="targetPoint" />
          </mxGeometry>
        </mxCell>
        <mxCell id="9QXBRPPnokm7t-XI1kbM-83" value="Copy and crop" style="text;html=1;resizable=0;autosize=1;align=left;verticalAlign=middle;points=[];fillColor=none;strokeColor=none;rounded=0;dashed=1;fontSize=18;" parent="9QXBRPPnokm7t-XI1kbM-1" vertex="1">
          <mxGeometry x="1385" y="305" width="130" height="30" as="geometry" />
        </mxCell>
        <mxCell id="9QXBRPPnokm7t-XI1kbM-84" value="2x2 max pool" style="text;html=1;resizable=0;autosize=1;align=left;verticalAlign=middle;points=[];fillColor=none;strokeColor=none;rounded=0;dashed=1;fontSize=18;" parent="9QXBRPPnokm7t-XI1kbM-1" vertex="1">
          <mxGeometry x="1382.25" y="385" width="120" height="30" as="geometry" />
        </mxCell>
        <mxCell id="9QXBRPPnokm7t-XI1kbM-85" value="2x2 up-conv" style="text;html=1;resizable=0;autosize=1;align=left;verticalAlign=middle;points=[];fillColor=none;strokeColor=none;rounded=0;dashed=1;fontSize=18;" parent="9QXBRPPnokm7t-XI1kbM-1" vertex="1">
          <mxGeometry x="1385" y="430" width="110" height="30" as="geometry" />
        </mxCell>
        <mxCell id="9QXBRPPnokm7t-XI1kbM-86" value="1x1 conv" style="text;html=1;resizable=0;autosize=1;align=left;verticalAlign=middle;points=[];fillColor=none;strokeColor=none;rounded=0;dashed=1;fontSize=18;" parent="9QXBRPPnokm7t-XI1kbM-1" vertex="1">
          <mxGeometry x="1385" y="470" width="90" height="30" as="geometry" />
        </mxCell>
        <mxCell id="9QXBRPPnokm7t-XI1kbM-89" value="" style="shape=image;verticalLabelPosition=bottom;labelBackgroundColor=default;verticalAlign=top;aspect=fixed;imageAspect=0;image=data:image/jpeg,/9j/2wBDAAoHBwgHBgoICAgLCgoLDhgQDg0NDh0VFhEYIx8lJCIfIiEmKzcvJik0KSEiMEExNDk7Pj4+JS5ESUM8SDc9Pjv/2wBDAQoLCw4NDhwQEBw7KCIoOzs7Ozs7Ozs7Ozs7Ozs7Ozs7Ozs7Ozs7Ozs7Ozs7Ozs7Ozs7Ozs7Ozs7Ozs7Ozs7Ozv/wAARCAL/A/4DASIAAhEBAxEB/8QAHwAAAQUBAQEBAQEAAAAAAAAAAAECAwQFBgcICQoL/8QAtRAAAgEDAwIEAwUFBAQAAAF9AQIDAAQRBRIhMUEGE1FhByJxFDKBkaEII0KxwRVS0fAkM2JyggkKFhcYGRolJicoKSo0NTY3ODk6Q0RFRkdISUpTVFVWV1hZWmNkZWZnaGlqc3R1dnd4eXqDhIWGh4iJipKTlJWWl5iZmqKjpKWmp6ipqrKztLW2t7i5usLDxMXGx8jJytLT1NXW19jZ2uHi4+Tl5ufo6erx8vP09fb3+Pn6/8QAHwEAAwEBAQEBAQEBAQAAAAAAAAECAwQFBgcICQoL/8QAtREAAgECBAQDBAcFBAQAAQJ3AAECAxEEBSExBhJBUQdhcRMiMoEIFEKRobHBCSMzUvAVYnLRChYkNOEl8RcYGRomJygpKjU2Nzg5OkNERUZHSElKU1RVVldYWVpjZGVmZ2hpanN0dXZ3eHl6goOEhYaHiImKkpOUlZaXmJmaoqOkpaanqKmqsrO0tba3uLm6wsPExcbHyMnK0tPU1dbX2Nna4uPk5ebn6Onq8vP09fb3+Pn6/9oADAMBAAIRAxEAPwDY1bVdTj1i9jj1C6RFuJAqrMwAG44A5qqNY1X/AKCd5/3/AG/xp+sD/idXx/6eZP8A0I1TC96sC2NX1Q/8xK7/AO/7f41Iur6n/wBBG6/7/t/jVQL+FOGM0hlwarqXfUbv/v8At/jThqupd9Quv+/zf41TAp4FIC4NU1H/AKCF1/3+b/GlGp6j/wA/91/3+b/GqoGe9OANMC2NT1D/AJ/7n/v83+NPGp6h/wA/1z/39b/GqYFOoEW/7T1D/n+uf+/rf40o1O//AOf64/7+t/jVSnoKQy1/aN/n/j9uP+/rf404ahf/APP7cf8Af1v8ar44pRTJJzqN9/z+3H/f1v8AGkGoX3/P7cf9/W/xqHFJjNMCx/aN9/z+3H/f1v8AGl/tG+/5/bj/AL+t/jVY0uKYFn+0b7/n8n/7+N/jS/2je/8AP5cf9/D/AI1VpaALP9oXv/P5cf8Af1v8aP7Rvv8An8n/AO/rf41XpKALP9oXv/P7P/39b/Gj+0L7/n8n/wC/h/xqtS0AWP7Qvf8An8n/AO/p/wAaDqF7/wA/tx/39b/Gq2aM0gLB1C+6/bLj/v63+NH9o33/AD+z/wDf1v8AGqxH6Uc0hln+0b7/AJ/J/wDv6f8AGgaje/8AP5cf9/W/xqtziigRa/tG9/5/Lj/v63+NH9oXuf8Aj8uP+/rf41VpRTAs/wBoXv8Az+XH/f1v8aP7Qvf+f24/7+t/jVelJGOKAJ/7Qvf+fy4/7+t/jQdQvf8An8uP+/rf41XpOc0AWDqF9/z+3H/f1v8AGj+0b7/n8uP+/rf41X7UlAFk6he/8/tx/wB/W/xo/tG9x/x+3H/f1v8AGq/86SmItf2jff8AP5P/AN/G/wAaT+0b7/n8n/7+t/jVekyO1IC1/aF7n/j8uP8Av6f8aX+0L3/n8n/7+t/jVQEUoNMZa/tC9/5/Lj/v6f8AGmnUL4H/AI/Lj/v63+NQ8U00CJ/7Qvv+fy4/7+t/jR/aF8R/x+3H/f1v8ar0H0pDJ/7Rvv8An9uP+/rf40v9oX3/AD+3H/f1v8arduKM0DLA1C+/5/rj/v63+NO/tG+/5/Lj/v63+NVaXI70AWDqN9/z+XH/AH9b/Gk/tG+H/L5cf9/W/wAagxSE4oEWP7Rvs/8AH7cf9/W/xpRqN9/z+3H/AH9b/Gqw9TS0AWf7Rve95cf9/W/xpp1K+/5/bj/v63+NVyeKbTAs/wBpX3/P7cf9/W/xo/tG+x/x+3H/AH9b/Gq3bikpAWxqN9jm9uP+/rf40v8AaN9/z+3H/f1v8aqilUimBZ/tG+73tx/39b/Gj+0b7/n9uP8Av63+NVzTSeaALP8AaN//AM/tx/39b/Gj+0b7OPttx/39b/Gq+cCl60AWP7Rvsf8AH7cf9/W/xpP7Svc/8ftx/wB/W/xqvik79KBlr+0b7/n9uP8Av63+NH9o33/P5cf9/W/xqtilzigRY/tG+H/L7cf9/W/xo/tG+/5/bj/v63+NVqODQBZ/tG+/5/Lj/v63+NH9o33/AD+XH/f1v8arGkA5oAs/2jf/APP7cf8Af1v8acNRvv8An8uP+/rf41U/ClBNIZa/tC9/5/bj/v63+NH9o33/AD+z/wDf1v8AGqwo4piLJ1G+7Xlx/wB/W/xo/tG+/wCfyf8A7+t/jVaigZZ/tG+/5/Lj/v63+NJ/aN9/z+3H/f1v8ar9qTvSAsf2hff8/tx/39b/ABpf7Qvv+f24/wC/rf41WJopAWDqF92vLj/v63+NL/aN9/z+3H/f1v8AGq2aAaBlk6hff8/tx/39b/Gk/tG+/wCf24/7+t/jVftSUAWBqN9/z+3H/f1v8ad/aN9/z+XH/f1v8aqinAUWEWRf3x/5fbj/AL+t/jTv7Qvf+fy4/wC/p/xqsOtL2qrCJ/7Qvf8An8uP+/rf40h1C9/5/bj/AL+tUBpvWjQCx/aN9nH224/7+t/jSf2jff8AP7cf9/W/xqvQfpQMsf2jf/8AP7cZ/wCurf40o1G+/wCf24/7+t/jVbij8aALI1K+/wCf24P/AG1b/Gj+0b7/AJ/bj/v63+NVu9GetAiz/aN9/wA/tx/39b/Gl/tG9z/x+3H/AH9b/GqtB+tGgFn+0b7/AJ/bj/v63+NL/aN9/wA/lx/39b/GqvU0tMCz/aN7/wA/lx/39b/Gk/tG+/5/Lj/v63+NVvSlFICz/aF91+2z/wDf1v8AGl/tC+/5/Lj/AL+t/jVb6UUwLX9oXv8Az+T/APf1v8aBqN7j/j8uP+/jf41Wzml7UAWP7Qvf+fy4/wC/rf40f2he/wDP5cf9/T/jVXmlBoEWTf3uP+Pyf/v63+NH9oXv/P5P/wB/D/jVYmjrQBZ/tC9/5/J/+/p/xpP7Qvun2y4/7+t/jVfHGaQmgZY/tC+/5/Lj/v6f8aDqF9n/AI/Lj/v63+NV6SgCwdQvsf8AH5cf9/W/xpv9o33/AD+3H/f1v8agOcU05oAsf2jfD/l9uP8Av63+NIdSvx/y/XH/AH9b/Gq/UUhoAnOpX/8Az/XP/f1v8aadU1Af8v1x/wB/W/xquefwpp5NMCydT1D/AJ/7n/v63+NMOqaj/wA/9z/3+b/GoDz2ph+lFkBYOq6jjP8AaF0P+2zf41teEr27udWlSe6mlUQE7XkLAHcvPNc2RnrW94MH/E3l/wCvc/8AoS0StYDB1cf8Tq+/6+ZP/QjVYDBq3qw/4nN9/wBfEn/oRqqKgocB2pQKBzTgPzpAAHNOAwaUCnYxSGAAp46U3qOlOAxQIcBTscZpoPtT+1MBMVIo4poqRelIQ7HtmjFLkUZ4pgIKMcUZpRzTEJjFLR7UYoAMUdBRye1FABj86KD9aSmAtHBpKUc0gCkpSDQetACGg0UlAC0UUdqAE9qBRiloAOtLQBRigBDjtRmkPFJj2oAccngUgHrS8UZoASlpCaMnFACE4pu6g0lABup6mox1xTulAEueKaTgUqkYoJ4oAYT60U48ikxQAlLQRRSGJyDSiijvQAd6DRnJo70wFA7UuKQHNLQIQjvTcCnGgDigBuOKMUpFKKAG9KXFKcZpM0ABpO1B4oNAxM80uaQikoAduoHSkB5pwNAC0hpR0pKAD8aTvS0g65oAKBRmigBfrQPWij6UABNKDSEUCgBc0UUUCEoPWlPpRQMTikpaQCkAvSkJoIooAKUdaTvRQMUYpwpvWnA+9MQval7ZpuaXqKYCE0lLQOtIBpFJTyM9qaRTASlopBQA760etFJQAvakpaCOKAE7UZ5o7UlAC44pRSe1LQAoFL0oHWjj1piCgUuM0YoAQ0UtFACY7YpOetOoxQAnUUnelpCKAA9cUdKMUuKAEP0puKdSY9qAGlaTbTsY70Y9TTAjI4qMgZqcjimFeaQyLGaQrznFSHrSGmIjYc1u+DwBq8v/AF7n/wBCWsQjPetzwh/yFpef+WB/9CWiWwGFqw/4nN7/ANfEn/oRqrirmqj/AInF7/18Sf8AoRqsKgoTFOHFIB3pwBpAOFKB70gpe3SgBaXFA47UopDFFPBpoFOAoAcop4pop+KZICne1NpaACjmijtTAXFHUUUlAhe/FJ1oPNHSgA6dKMUUvagBOlFLQP1pgLSGjpRQACgijNH40gEooNIelAxaBSdaO1AhwNFN5ooAU9KSijvQAtJml7U3vSAU03NDdaTNAwwaCKUc0uKYDcZpcUoHtS/hQIQUtBH6UmTSGFGKXFFMBuaTNL1oxSAM0UGgelIBe1A4pBxSg80wFFA5peDSY9KAFopucGlzTAQjNL0oJoNACUDmjNJ3pAKaT1paQ0AIaSlzSjimMTFApaMUCFBxRxSUgNIYpOKTvTc0o4oAdnNKKaOlOBxQIUik607OabQAUo60lOHNABSYpe1JmmAUlKTR1oAQjikp1JSAB6UHilFHamA0jNFLRjPNIBPSndqSkoAeKSjBxmjBxTAWgCigHNAAaaemacetNx2pgJjNLSYNLSAUUUAUuMUxCYNHJopQKAExRS+1A9KBiUoFLQKBAPeijA6UEAUwFpabmlBoAKM80ZpM96Yhe9ApMc0tIYGjHFJ+NKKYBijtRilxSAbQaXPHSkJ5oASg0UlACHimHinUxqBobxTTTsUhpgNrd8ID/iay/wDXA/8AoS1gn61veEf+QrL/ANcD/wChLSewGLqozq97/wBfD/8AoRqqKt6r/wAha8/6+JP/AEI1WA4qRgB3o707HFGKQCY5pRS4oFAxRTgKTNPFIAxTwOaQCnAUAKPQU6m4pwFMQUopKKBCjrRRR1oAX2FJ3op1ADaKU000AHtS5oHNJQAtHekBpRTELijoKO1Dce1ACZozSZoJoADmlxTc5pwNIYnQ0CloyAaAE+tGeKDQaAE+tLR0oz60AFJS0lACEUYp3akoAAMUvTtSig0AITQDTTSg0rgGeaWjrRjFMAFIKdSdKAEpASe1L1oxQAd6MU4Ck+lFgAimj9Kd25NIc0AHenUzNGeaAA8mgGkJ5pKAJKQj0ozS5oAbQRmlpRQAmKKCKAOKAExSilwKTNMAxzxSkYGaQcmnHpigBhGaQ8Dind6QjNICPmngEUuKO9AC03OaWk4zSAeOlFNz70UAL3pRxSA0hNADs0lJn0oJFMAJoHWmk+tKDQMdmjmkzTgQKYgNH40ZzRQAUmcUtJ9aQBRj8qMmj3pgLmgHGaSlzjmkAtGKQGlpoApDTu1JTEJRiilPFAwFKaKT0oEGOKUdKAPWjigApPeg9KXkUwCjNJQKQBS5pMUtABRSY96KAFzSd6TNLnimAvagU3vTqADGaUULnNLTAO3WigmkyaQgxSUUfjQMTFJ9aWkJ5oAQ89aYaf16U09aBjDQRiloxxTAiPpitzwh/wAhaUf9MD/6EtYxWtvwlxqsn/XA/wDoS1L2Ax9U/wCQtec/8t3/APQjVYCrOqf8ha8/67v/AOhGq4qRigUuOKOlKKAGkc0bafjPalApAIFpwFOC0uKAEHNOHWgClxQAUooo6UwFpM5pc0lAg7UvFJQKAHUdKSjpQAZ4ppNP7UzFACg80NSAZpcUAAp2PakAopgL0HFL1pOtAGKBDWODimE5p7DJppFAwzSg0lH1pAOpKUH5aac0AOzmkpo4pxPFACd6XOfwphJzQDQBIaQUA5pCfSgB1FIDS/WgAoJ4pOKM0hhmkzQTRigBQe9OyKZmjdQA8dPakNJuoB9aAFBopM0gbmi4mPHFHvSc9TS0wENNw1PNHXmgBm1vWkKn1qSmnrQBE8T9QaAsi8kZqakzzQBGHxwQaeDleKXHFNKDHXBoAcDRmozuQc8ilDZGQaAH5zR0pKM0AOzSHmkz+tJTAVeKcTmmil70XAU0lGfSgmkAlKKT6UvNAwzTTzSmkHWkAoAoAHvQKWmAbcdKSnDNBGKBDetJT/am4oAbSYp+KAPagBBTsUoX1pcYoATFFLR2oATFNOaf9KTrQA0cUucCg9KTHvQAoNBPrR7Uh60ALTs0zkUAmmBJnikPNJS07iCl69qO1FK4xKUUlGcUALR+NGfWimIKCDS8elFADaXiloA/OmAlFBBzRQAhFH4UufekxSGGKKMUoHtQITGaUcdqXFHemAvUUUCkoEH4UlLR260DEpOlLjNJigApCM04CgigY3oKYaeRx0ppFADee9JinfWigBpFbfhMY1WX/rgf/QlrGxWz4UH/ABNZf+uB/wDQlpPYDH1T/kLXn/Xd/wD0I1WAxVnUx/xNrz/ru/8A6EahUVIxo5FOxzSgYpcUCEA5p4FJinUDHCigUvvQIAKWiloASgg0UUAJRyaXvzRQAUUnfNFAC0dqKWgApCKWkoAAcUUmMUvNAC0UUcA0CD60tJ2pc0xiYpGFLmigQzFAFKaKQwFBHtR3paAGYpSKU8UgNADSKaRipMUhHekA1c0tKD7Uo5oGApTSYooAM0maTFLjigA7UhPaig0gDrRj1oB70ooATHNJk5pT1puMmgY7OaBwacBx1pQADRYQUUHiimIKPej3oPFMAzSgU2lzxQgCk70v9KKACkozR1oAOe9NKZ6cGn9hRQBHkjg07PFKRnjFMwVPPSgAwTxRgCnDrmmnjmgYuaCaTNGaQhd3FBPFNpRmgBwyKUGk59KQ0DF6ijpxRnFHf2oAcMYooBzSGgQ6jJNNzTh0pgJg0YHWlzmk70AJjmlpaMUwClpOlKMGgApMUuRRQAYwKQ0ucd6TrzQIMUmKdSUhiYzTWHanE80YpgMxQOtOI5pVA9KAAUv0pcUuKBDaM8UpHpSAZNAxCc0ClxQOKAEp1JRQIdRTacM0wFopM80ZxQAZpppTTSDRcBM0o5pMU4CgYtOx+NNB7U6gBe1B4o7UlMQh5oFLSdTQAUoPbFJ3pOtADiOOKTHHWl7UH6UAIBzQRxS/zpCx6UwG4pCKXNJ1pDExntRilINGKAEx3xWz4WH/ABM5f+uJ/wDQlrIxWz4XH/Eyk/64n+a0nsIxNTH/ABNrz/ru/wD6EahFT6kP+Jtd/wDXd/8A0I1CtSULinAUYpaBCgUY4oHWnYzQA0UtGKBQAtLSUtABR7mlo9qAE4pD0paPrQAmKKUdaO1ACUUuKSgBQfWk70tIKAA0Gl7UlAAOlL9ab7UuaAFJpM0GkoAXNGaSikAd6KAPalpgJRQaTpQAh5pRxSZIooAWlxTc4pc8Uhhige9ANKfamIXAxTSKdnimk0AJSU7HekPHNIYlIaCaO2aAClzSc0c0AHelHXNHvS4HagBwNANNzR16UALmkP1oxmkoAdknijtSD60p5FACAc07p0puKXvTEB4ozRRQAUvakPpR3oADQOlHaigAFKaTPOaXNADD8pyORR1FKeKaOG9qQBikwc08+1KKAGEGnDpS4zSgY6CmAnQZphPrUhqNhQA09akHIpuDThwM9aBiA4NKaMUUCDHvThimk+1KKQC0tJkZpQaYAaKKT6UALmikoNAC0CkFLQAHrQOKKSgBTRRznijoKADHPSlxSU6mIZjJFOA70uAKD1oC4oozSUZ5oAKQ0ppD9aACjFFBFADSKKdikxQAACl6UCgUwFxxQKAOKUDHagBMUmKXPajtQMQClANL+FAoEGKKUnikPWnYQZoxmjHFGKADoOaSnGk70DEoozjmkzQA7PakzSZ5ooADSGlooAYaUU4jIoHTpSGB5FFHbrSc0wFx3rY8L/8AITk/64n+a1jZrZ8L86nIf+mJ/mtJ7CMfUh/xNbv/AK7v/wChGoFFWtSGdUuv+u7/APoRqvjFSMUdaUc0gpfwoAWlpKKQDqTHNKKMetAAOaXFGKKYBRSnik60AIaKDSUALijNFFABR3o60YoADzRiiiiwBSGg0h4oASgmg0lIBc8U6mCnA0AHtS96b1NKaBjqaaM0gNAC/jSMKWkIoATFJilPSimIQj1pelFJ9aQC0vWkHFH1pgLRmkz70h+lAC96DyMGk5paQxuBS0GigAopDS5oAF6UdKBxRQAZ5pR0ppoBx1oAdxQab3p1ABSgU3NKODQIXNHWkOMUDpTAOlLmm0A0gFNL2pKUGmAvako4xSZ9KAFpARinDpTe9ABxSAdqG4oHIpDAHnFOpCM0CmhC9aXNN680ueKAF5pCvGaBS5JNACEHHFJil6mlxSAO1HvRR70wEpenak96U9M0AJnmnZqPNKGoAf3o+lNzzTjwKBBikPJozSg0DDFLR1pCaYBiijPel4xQIT60tA4o96AEFOHHWk6Ck/GgB/vSZpgJpe9MBSaBxSUZpAOpO9JniloAKKQc9aWmAdO9GPegmk+tAC96UDmkFKKAFxRSE0hNAC8etBOabRQA7NKKaCKXNMBxNJkZpO1GcUCFxQetJmloACc0hx0pc03rQMPxoAFGaOMUAJ0pcUn40oFAC0Ckz3paBh+FJS54pPpQIKSl/GkOaQxCa2vC5/4mUn/XE/zWsUD2rZ8L/wDITkP/AExP81qWBmaiM6ndf9dn/wDQjVcYqzqP/ITuv+uz/wDoRquPWgBcUYoFO7UANA9aXFLijFAAKXNJSikgFoxzR9aKYBmk70GkoADRS9aQigAooooAOtFGeaWgBDTc04/dzSHpQAlFJ3pe+aQCdBk0zdzUhGV5phGDQMKWkxzSjrQAClxmjvS0CGkUdBS9Oc0HnvQMKUUynUCA0mM0pz602gYp+tAo4opgKRim05jgDFR/SkIeRRSqcrSUwExilpPxoPSgAzRnmkopALQRSrzQ/XFAxCabupKTFAC7qN1IeRTaAH7qXPrUYzningjNADqKXHGRSEhaAFoppY9qMmgQvOfeik3UA5NMBwPqaDxS7fWkPvQA4dKSjtSE0gFBzRxmmZOeKTdzQMec0i8dc0oIpCRQA8Gmg4Y0A0N0BFMQU7pTMjNO60AKKMUnNKKAFoJxR1pM80AL1pe1No5oAKd0FJQDQAmKTaadjNKaYDBT80go7UgF7UGko/GgAPFJzSkD1oA7UAKOlGe1JS5zTABnFBNGaSkAvFISMUnejvQAoGKXFJnFLQAEAc0zPPTinnpUZIFMB26lFQ78nAGakBYjpSAfnmjJph3f3aN+PvDFO4DxRyabmnZzQAUoPFJRQAtITzSj1paYhppAKcetJSAQU7OaSlAoGHNKOlIRRTEHel6UlHtTAM8UUGjFABSE0UUhiUtH4UlAC0tN6Uv86Yh2QOKTvikyPSlBBoGLjjpRgUg9KX60gEIrY8L/APISk/64n+YrIrY8MEf2lJ/1xP8AMUmBl6kf+Jndf9dn/wDQjVYGrGpf8hO6/wCuz/8AoRqtUjHg0uaYOacOvNAh1FHFL+FACd6U0lKTQAUhNL0FJQAZzRR2pPpTAXNFNpRSAOtHWlpDTAXHNGKTNL2oAKSlxS4zQA3HFJTsUYpAJjikxS0fWgA6D3pvNLmimAdqSikJpDEpe1AoxQAlLSUo60ABpBzSc0nNAD8elIKVfSgj1piA8rimAU7tS0hhjApAaXvSd6BBxmlpvelPtTABSEUvtRQAi8HilbnmgHmnDBBFAyPBpDUm3jrTSvPWgQ3FNNSbTSbKQyMGlHWnbKMY7UASKflwajJ5pdxppJzQAA0ZFFHGKAE3c0oNNI5p0YyaAJi2U6c1Dk1PwF2+tQEHdimxD1Py49KOtIMAUvpSGJ0oIyKDQKAEpQM80vtQBjigBcUYo/GjOelMQ00oyDSY+br1pwpALjmnUmaTdTAdScUm6lHWgA70tIelHegBe1A9qTvTs9qAA+1IaXvRxQIaDg4oJpCAaOnSgYufWik60vFAC9aKM0o9qAENKOlBooEHWg4oPFFMBtApcE0uKQxKUD1pCcU0kseOlAAW5wKTb3PNOwBSnmgBAB2FOFN6UvWgB1IRntRxSZ4oAaU6letKp7HinAUMvHvQAZo70xTmnUwH0H1pKM0xB9aQcUpoGcUAAoFLSUAAooz2pTRcA6ijFFHQUAJ3oxilHJoI5oATGaOQKO9L+NAxvNIRzzTs0UANwaOad3pMUAJSjFGKB2pALjmg0cUhpgB9a2PC3/ITk/64n+a1ik+gra8LA/2lJ/1xP81pPYDM1FSdUuv+uz/+hGq4U1b1Af8AEyuj/wBNn/mar1IxuCO1KD+dOxmgAUgEBozQRSYNMB1FJRn1ouIdjvRSA0tMBvWlOO4oNJSAY+cjFPUHFKAM0vegBKD0oNJ1NMBPpS0AUuKQAKWkxQKAFoOKToaXIoAQ+1NFKaTFMAPWj3oOKKQCGkp1NNAxRyKTtSDNL2xQAUAelHagUAIaMUuKKBAOKUnNJiimAGiig0AJRQaTigBRignFJ0oz3pDCjtTScDrQHHrRcBxpM9Ka0gpnmdqALGeaaTg9ai8z2I/Cmmbvg/lRcCfNOByKq+cMd/ypyzDHcUXAmzmjqDUfnKe9L5ik9aLgLR3zSbhmjOaAFPNAUE0h+tKCKAFKilHFNDDPSl70AKTlsjpQRTSaN3FAWF4oJ9KaxpQeKAAHsaUU3370A0wH8CkJ5qMEgmnE5FIdhSSRSrgfWmZxShs0xMVux9KeBTO1OBytIQ40lGfelBpgGPagDBpaBQAtHfpSZFFAC5pOc0UUAGeKTOeaCRRjigAHTPegdKXtQRxSGIKT8aUCgigQCndqQCimA6ikzS9qAENGKKKAFoNIc0hyxwDQAjZbjPFKOOlKBjikNAwHNLxSClx3oAUijFNDUoNAgo/Sl7UdaABeDS+1J0pQ1ADGUqc9jSjilflDj60inIoAXmlpcUUwCj2oFGO1AgIooxRTASlpO9Ht0oGL3oxRmloEJijvRRmgBOlL0o6CigYlLilFLmgQgBx7UhXindDSE5FADKTJBobim8t0pDFLdqMZPNKF44pwFACAVteGBjUZP+uJ/mKyMVseGf8AkJSf9cT/ADWh7AZuoD/iZXX/AF2f+ZqvjmrOof8AISuv+uz/AMzUAFSMQClxmlxSUCEI4pKcaTvQAUhFLmkoATFGc0tGKBh70UnQ0o5oEJinAYowO1HagBKQdKU0YpgJg06gUGgBAaKWikAhowaXGaQdaAGk4NJmhhzxTTx3pgOBpetMHNOFIBaCKO9Ge1ADcc0Ype1FAxD14o5paOaADNHGaTNG4UAB4FGfWj8KQqT3piF3UwuOmaXYKMAdqQDdx7A0fMegxUnagUAM2seS2KNg9SaeaaaBjTGPSlCqO1HUUZNAC8egpMYPPSjrTXfsOlK4Cs1R7s0E5HWmZ5oGPBH1pRUfQ1JjP1oAkABGcA0141P8IpY2xkdqd1FMREY1I9KTy89GNSe1ITx6UAR7HHRqT51PY0/I60maQxN57qacrj1pcHGc8Ugx9aAF3Ckyc47UmF69KMZPBoAUUoNIPzpM0wFpFNGaRenFIB9BOelBo4oAYMlqkxSAAHil+lMGKOnSmxnjHpTsUxMBmBoESEilDCmkdKKAH5z0paaGwoOOTSE+9AD6XNNTnig/SgQtKeKbQaYBnmjNJ2xS0hiqeaUnFNH8qDQA5TkZpSOaYOOlO3ZoAU0DmkakHpQA4jFFFHegQdqKWkY4BNMBrtgYHU0Jxz3po5OTTxSAdnNJikBp2KYxuKXqKdikNAiLkH2NPBoxzSgYoAOQKXNH4UUAGaDR9aTmgA7YpsZ4p22mJ1P1oAlzRQBQKYDsCjvTc+lLmgQpHvSUppDTGJ16UUtIKQBS0nSlpgBoxg0o6UCgAIpKcTzSUAJRml9qSpuAg9aRmwKGOBTBknmgBQCTk09V9KAKd0pgAFLjpRS0AJWv4Z/5CUn/AFxP8xWVitbw2MajJ/1yP8xQ9hGbqH/IRuf+uz/zNQCp7/8A5CVz/wBdn/mahqRh70nvS0lMA6ikpaSkAUlKcdqOMUAJRjmjvRmgYUY9KSloABTqbS5xQAUEZ5oBpaBDe1LQaSgAHegUYoFAC9qQ+tKfpTe9MAppWnUdaAGhQKWilFACZpKUmkzxwKQCd6M0H3pAKBgDTu3NJ0pc0AN285zS9qMilzQIM0Z9abS0DAikIIpc0p5FADAaUHtQRjNJ+NADsE03mlHNIzAUCEzzRxSE00nNAxS/YdKZR3pccUhjTgCminHrSYoAWlU5pBwOtKg5xQA7PHFKD2oA5oIxzQIC3zUHmm5pwoGNxTfrUlMYc0DCVjxjpiot5p5BK4NRNmkCJVbJwelKVIqFCeuKeXOR7UwHb+Tml3A96hLAmnAkUDsSHnNAB7dKEYYJPamGUk0CsTcAdaQH0qHfShuaAsS9OtKD70md0fXmkFMQ/NRN/rOvUVJ2qJvvKaQE496MjimqeMUNkGgBxGRTeaMk0D60xD14p1MBpwOKAHYpCKTdS0AHWkJoo5oAAT+dL14zSbgOtNGWPtQA8nHSk5z0xQtOxmgBMmjJFHSjvQAuadmm4wKWgBe+aaPmPtQTk4H40o6UwArRSk8UnGaAFC9KcOOtJnFKDQAGkpSeKQ0CAUvSm5ozmgYpJooFKeelAhDSdD7UvApCRQA6olxk/Wn5qNOmaAJN1GabnFJ/WgCQGnVGtO5pgKTxiikxmlFAxcmijvSc0CA0Zoz60CgYueKXtSAU7bQIT6igU7GKaTzQAoFBAApMimk7zxQAmNx5HFOCinAUuOKLCG4oFOpCMUAKOeaUAUDFH40wF7VreG/+QhJ/1yP8xWRx61r+G/8AkIyf9cj/ADFJ7AZmof8AISuf+uz/AMzUGeKm1D/kJXX/AF2f+ZqAGpKFBoPNFFACUUUYoEJniikPFGaBh60Uho70gF7UtJSimAc5oNLR1NACClpRxQaAGk0ZzQaTvQAucD60gNBpO9Ah2aQ0mcd6QGgB2aKQc0YpgGcmgj3paQUgE4zSjmjtQKBgelNpcGjpQITvQadTaBiUo6UmKVuDigBucGlz70h9aBQIXNLmm9DS4oGKcGkooFACMdoqJmxzUkwwevao8ZpAGTS0nTrRQMKO2KQ0ZNAhDSClakzzSGGeaVTjkUwmk3YpjsWMhvmFIcelQpJhsdjUo55FAhOlBbFBIFRluc0hkpPy5pGPGaap/KkLAUwsKWqNjxQxzUbE4I70rlWH5ozzUQc0/cMUrgGeaXd82M8VHnmkDc807huT7vlI9aiHWlRs8+tOKg9sGgTE79aUGk2H1FKAe9AiXov1pVbjmmA9u1GaAJCc1G5wFPvRmmyfcJoCxOGxilLVECOtLmmFiSgdeaaKUdfagVh2aUHvSAij2oAdmlyPWm7qQk0APzkUmeKbxTZH2KT1ouA4He+Owp4IqJBgCpMnNIY8GnAioutBJp3ESE5oHPWmA0ueKLhYeTzSZ54pCeOtAGB70xAO/alBxSYpMYpgSdaTGaF4FKQaBBzRn0oApaACk5pRQ33aAGlsUAikNJ3xQMeDS00DvSigQvam0tJzQAHhCfahB8tNkJ4HqacDx0oAUgY6Um2nZpccUwGjjiloxRSGLS5pKXHtTEHak/Gij2pDFxSgYpKAeOtADh1pwpu6jOadxDiRUZNKxqF3xwDSYDmJJwKegwKYg9eamUCmgFo7UvBpCMd6okKKKOtIYmaKTvR3pALWx4b/AOQhJ/1yP8xWOD6Vr+Gif7Rk/wCuR/mKHsBm6gP+Jldf9dn/AJmq+O9WdQ/5CNz/ANdn/mar1JQvajGaTNLmgQmKTFOyabmgBCKaRTjzSGgY2l56UnNLSGApaSlFAhQaUH0pvvRmgB2aQmmluKbmgBxJqKSUpg4zUnJFNZMgg0CHqdw45pcdqZA3yle44qTNMBm3B65pQBSkc0DOKADFGeeKXHBpnNMBTSZ9KBRSGL1UetAGOabmlBNAg704YIptLQAUhpetMdSVIVsH1oAdSMM89+9AyAATml70AJt9qQinNnAxTTnFACU8CmA4p6mgYh496Q8Up4pp6UADHIwaYR6UuTRnFICPNKKCAfY0bTzQMQnnmm7uacaYeuRQApPIppNDHI9DTW5FIYZpDTc+9IWpDFJpySlD61ETzUbSEdaVx7l2SRVx70wsMYqCJ/MIXPWnvhSQHBancVrB5m04oMoIqtO5iXJGKhEpdeKjmKSL3mYb2pruAc1ni7x948Ukl4pQ4NLnQ+VlxpBnIpplx3qmJcrnPWkEhPFLmHYvrIDTt3NUVYg8mpll4OTxVJhYsh+cGpA/equ8EA07zBjrTuKxaDZpx5HFVkkOak8wCnckk3YpDJULSgtjNNJ5xmi4WLIbHNNdsqQO9V2kKjPYU1Zt3elzDsW43yo+lSDGM1UhlyuM9KmV896pMViYNTt2KhDc04NmncRJu5zTs1CHx1p6sN3NFxWJcHGaQnmmmQt9KVDu4phqLu5pj/M6j8aXHNNXmZvYUhkgpw5po4p4PagQowBQRTc80uaYCDrzTsjFISDQBzQIcopwXnmhelOFMQYoAyaWg0wEPOKD1xR1ooELxSGgmkC0AOFBoo7c0ANxQFpxFIaADPNL1pPrSigAxQRS00nAz6UDIycv9KeKaoOPUmngUAPxSHgUdqSmIXvSUUGkMWikHSimIXNJRSZpDF5pcfhSCng8UAJijpS7gKjZs0AKz9hTFXnJ605V5p4WlYAUc1IKaARTulUIWjOaTvRTFYWkpaDQIYaAKdjikxSGJitjw1/yEZP+uJ/mKyMVseGv+QhJ/wBcj/MUPYDN1DjUbn/rq/8AM1XzVjUD/wATG5H/AE2f+ZqvmkUB6UlGaTNACk0lFGeakAzTT0pTzSGgYhzilFJmgUgHd6TNFJn3oAXNJRjmigBCPegU7FJjmgBQcCkbpSgUpHFMRDCT5r1ODUEeBOw9RU/SmxC0dqOtIaAE5z1pD6UpNJQMcoGKQjApR0oPIxQIjznNKKQ5BpQaQC0duKBR/KmAUYzSZpc0AJjigUE80vGetACdO9JSmg9KBjSO9JmlpDntQAZx1ozk4pKQdaAFpppxFJikMb70vSkxQKAsB603A9KU0hoHYTA7gU0quelONRsaQWGug9cVCVfsQakdqjL0mUkMAckAgfnSSJknnp6UM/PFRtIAKm40hFcxuCBUMjuW4yOetOaQComlXrmobLsNmZmdmY5zTDcGGAhGwSeajlk3dKrzyBo/cVk3qWojZbsuwJ49feneaNowaoSFsVGJ2GADRc0tYvm5KttzxVkT9ORWRIw3ZDZ7GlFwQMA9KBWNf7SC2AeKkSbI61jpKdwNWfNO3IqkyXE1El5xmpQ3OR0rLjl6EmpFvQJNvY1SkieU0w3NPMnyc1XjcMM0rt8pA70+Ymw5pcfMOlIlwG71X81M7VOTVeZwgyDWblYaRfmuQqkZFQLIW5B61RSRpetX4VGwGle5TjYs25O8r3q6MD+IVmF9sm4HtUqze9aKVjNovtlME0iyZNVftO6EqSSQeKbFMOhNXzCsXc5NSDpg1BG4PQ1Jv24qrktEqhh15HqKlQhRnGTUQfNSZxVCF5zTUP7x/wAKdnNR9JmHsKYE3U0vSkB4pRyKBAcY5o64xRiigQoHrTxxTR1p36UAKDTx0plAPrTEPpDSjnmggZoAO2KBQBSjpTAQil6dKO9GOKBBR9KMCjpQAuKQ/Wl3d6PqKYDcc0dKf0ppGaQBnmmOckD8afgAUxRkk0AOUc0tHQUtACUGl7ZpKYBSZopDQMXNGab1opALmlpM0tAB0pSaOtFACZpQOelLinAUAAXpThSUtMQvQUUZoJosIDRSdqXtQMKCaSkNMQ4HAoyKYKWgBTxWx4b/AOQjJ/1yP8xWMeOta/hk/wDExk/65H+YoewkZ+of8hG6/wCuz/zNVqs3/wDyErn/AK7P/M1Vx3qCw68Uvakx3pc96AE6U00E5pDSAM0Z4ppNNyT0yaQx9ITSYbucUuwE+tACFwO9N8wVIEUdhSbR6UDG+YDThID3FJgelLsU9qAHA5paZ5QHTijDjoc0CJKRjxSB/UYpGNMRXd/LnVieDxVlXDcg5qheE5UDrmrdsNsOD171TETrk0ppoFLmkMTFGOKCaM0gDPrRTSaBQIUrSAUoOaUUwDikoOKTvQMKM0oNIelIQnelzxSYpOlAxcmkJ9KDzSGmAEikzRmjPbFA7CZoGaUfWlFADe1ITTjwaax9qQADTTxk4opG6/0pDCo2fFDvgYPFQu4zUtlJEgkPfpTGeoZJcDNV5btQuc1LkNInlkGDzVE36b9u7BFV57wshxWJcXDJITnnNZuV9jWMNNTo3uBjOaYbgEYNZUNw0sS5NSGQqcA5qbsrkLbTkZqrJKeSDTGlGOTg1XMwJxnilcpRJTM1RtNk81G8qqDk1WLk8/lSKLDyD61A7LuNMLEr1qNh37UCuK0gB60eZ05/CoN2Tj06U5QSfSqsLctRSDPNXYZFxgkGskMRx+dTQykHik0GxqkjHHGarOWD5HSoVuSTjNTRsGAGRk1N7FLUu2t2RhW4qzJISo5rN2EYNTNOBGKd9CXEfhvvKRiopGLg1A03HXpTluEI5PNDGkTQErn0qzHOVXFUg+TgVOnvS2BosGYsAT0FIXZT97NQM3Yd6dltpbrVXJ5UXo3G0En8KaZPm4NVoJMpmkklx0pXFy6l2O6Ze+atLKzDJ6+lZUEmWBJ4FXo3JwR2qotkyiaMcmAM1OHyMms9JMvxVtGOa3izJosDk8UHiUe4pqmlf+FvQ81oQSgHNOHApAeKWmAZyadjP0pBSigQ4Cg/WkBpV6c0AHel69KQj0NOUDFAh4xSEUmcUue1ACgcUmKUEegpGPFMQtBpoPFLnnFAC9KXb7UAClNMBuOaX8aWj6UAJ2oGDRSjAFADXPG3HWgYoPJzQo9aQxfajiikoELj0pD9aXHHSkpgAHNBFLiikMaV56UmMU/PNFMBlL2pcUuKQhMcU4ClA4p2OKAGgUpppbaR704HNMAHWilPSkoAXmijNIeKAF70tNFGaAHUmKAe9ITTEAFGCKcKX60AMPpWv4Zz/aMn/XE/zFZWK1vDQ/4mMn/XE/zFD2AzdQ/5CNz/ANdn/wDQjVfpVjUSf7Ruf+uz/wAzVaoKDrSGjNNJzwOtIYZwabknp0pwUZ+aigBAvrzS9sUUE0AIRRk0d6KQC5pD1oqOSQKKYD+9OApqHcoNOApALg9KXGOaMcUtMQ089qYY/SpKKAKrQF5lZuAKsgDtS0mPSmAtIetLS4FADaU/rRSHkUANK9zSj0o5oH0pAKOlL2pOlL+NACdqDS59aQnNMQlIaWjNIY3OKQnFKfXFNoAU0vAXJptEv3BQMaXHYUm7PtTOtGRQMkwfXinZxmmK/ajNAh+7PWmmkzikJzSASm9DSlqYx59qGUhkhz9ap3AbB2nmrMhqqx65rNlpGfNcyD5TUBnDLgmrl1Grgg/nWTLBIpJGay1NFYV3KtjPBqvdW8ZIOcnGacvzA7yQQOPeoZJWIwKixqSIVjjwMYpqvliSarFnUU0y4XHQ0WC6HzTMWwOaaGJHNQM/zUqzbW56VVhXJXIJwajLFSA3TtSvIGGQeageTihJibLAII5pnmZBHHFQichcEUmcjiiwcwjYzkUByDkUoweMYNNZdo96YDw/WnIcHrxUG70qdPvLngUMaJ1X+IVbhHSqhDZytWoWBH0rNlItdV/rUUo7VIHAGPSoZXyOtIZWkYDOai84DoKllZT6VBgHjvVrUlkqTsDmrCXecA8VmmTa2M4o80jOOafKTzGpJddMGm/amA4PFUY5R35qUMuDg5NGw73LqTkJgUsRd35FVIzngnFXICM5HSpGXI1+XaKt2+7IBqpFIucCr0GBzVJGci7DGB9asoKrRt71OGxgit4mLJxSsNyEUm4MeOlP4rQkEbKing1FGMZHoakHWgQ/NLmmZ9aUGgQ8Yp2DimKc04tgUxC5xSg1Hn1p6HPFADs0cmmninUCFFBoAyaUdaYB2o4zmnEU3FAC54pQaaaB60wHE8UA0lBOBxQAGg80gOaXBFIABxSZooxmgYCnDrSAYpaBATxRijil7UwCg0UmfegBPaloozQAd6XjpSUCkA7ilBApB05paYEUx6Y65pyHpTZu1KvTFAEmaXnFIKWgBP50n1FOppwKADIpabwOtNzQBJnNC46U0GnD60AOoPNIDRnPSmIM1r+Gv+QjJ/1xP8xWPWx4Z/5CMn/XI/zFD2AzNR/5CVz/ANdn/marH1qzqJxqN1/12f8AmaqgHvUFCEE/Sl4FL2oxmkA00CnYoFAxKMUtN70AA6800k5pxPpRikAnBFVpuuBzVoj5eOtQsmTnFMBYslRUg601RgU6kA7rS0i0uaYhMGlwaAc0DmgQnNLS0UxiYozSPxx0ooAdSUCj60CEI5ooJwaCaBh0pM5o60YoAXg0Gm9KXJNIApMZpfpSUAGKYVwacODTiMigCLpTmG6M98UYoBIPFMZFikINSMAeaVUBHPakFyIL3p1O4xxTScGkCGkU0kj6U89KYwpDGFqYxOfapDUbCkyiKQnGKgkB7VYccVCQO1QyrlR8sCKqyL7VfYA1UlG0nFQ0UmUZkVlPHIqg6DNXp5cA1nySndwKixqthp+XORxVeUruyDT3nyDVdzk00gYjOByeKieUNxSsCfcGqM8TpIChJHp6VokjNyaLwPGFNI2eppIA2wMRint83saVyraEfUdKA5zg0/GOtRTjkEdaAasSFx1qOeTGGHQdajaXbQSCMdjTsHN2Hg7hkVIrsQAOTUCnaMDpmlSQKcDrQ0FzRjfOM8VLHIA5waz0k3deDUiSZbis7GlzT80Mp9u1VzJkZzSRyFRzUbvnkUktQbCQ54qDcc9aUuCTTR1q0rGT1ZWkR2l3lsCpY2606TBHSoQVXvV7iasyVmAIIOKkWbP3arEg08KxX5frS5QvYuxMc8HNXIXwcE4rPt32daullADZ59Klo0T0NGDB571cifHuayobgd+gq7DN1wOKEDRqwkkZNWoz6ms2G4zVuOUPwDmrTMXcupj1qdTVRW6VOrjHWtEyLDycOD61IOelQM2RkdqlU8VVyR5GaUCm55p6nNADlHNKRQPWnHHamSRc9qkA2rz1NLjFB6c80xCYpwPy01fSpMYWkMTNOzTe9ApiHZIpKCaAOaAAjNBp1JjigAHXmmsKdntSUwEGad6U39KUGgBaOQKKOlAC0nJpRR0oAO9LSdqKAFpCKO3WgUAApe9HSk3AUAAGDSj1pM5FKDQAoopMdKGbHSmBHJ8xHtT16U3vTgaQDlx604UzP4UuaAHGo3IAoLZ+lMHzHPagBPmJp20+tL0pR0oAb8wFOBzRmkJwc0APFL9Kj3ZpwNMBwrY8Nf8AIQk/65H+YrGHWtnw1/yEZP8Arif5ih7AZt/j+0rr/rs/8zVc1Y1H/kI3P/XZ/wCZqtUDEPFAoNHIpDFo7Ugpc0xAabxSjHWigBMUuM0ppKQCUmM07FJjjigAC0YFKBR3oAMelJTvxpKAE57UDpSilAxQAUlKfTFNNMQrHPagc0n4UvagB2BSYpB6UtACUmBjmnEd6Q0hjOhp3bJpp65peowaAEPNFNwacOlABuwaXg0lFAAetBNBpOtACZoOKCADikz2oGLTSxHSgmkzSGIT7U2lpp4oBC0zmnd6QnHGaQxp6Uw+tPIqNsZxSGMcYNRFBjg1I2fXrULHmpY7EMgwKqSDJ5NW3PbFQOuRWbZaMu7TIJHBrLYhSfWtidOTis6e3ByRUmqRRc59qjbAFStEVPNRMhNUhDByakwp+tRlV9aAQM5NDQk0h7fL2pjH0FNaU57UwsT1amog59B5JPU1E7e9NZh680xsHvVpGfMI2OlRqxXuKM4zzTSpI4NVYVyUvuFC9agAZalVsdaVgUr7k2849KfDLyT6VCyny9+Dj1pkcgH0pWHzamiszEYokfkH1quN23IH5U9WLKM/lU2sXzXH4GCw7dqdEoZiTyKjwwPpUqAkbwcAdaGCdhkzgnaFGB6daoNuaTJOFHar8jgHCg/hxVZgGfgU0S9R0Sljip9uEAB781CGSMc/pSby/Kk8daB6FtQG+4eR/KpFYOxAfJHaq8TSKflIJIxzUkYAOcFSKT0KWpYjcoc96tRSyFs7jUMciOSCo29c+9TAbMYxg9KzZSL0c56EBq0LcbDuB+Vhke1ZkLJjA61dSYIAh7c9acWTJGijk8ip4nyazBdjolWLViTkmtFIzaNIfdqSJvlwe1QB84AqVCA+OxGa0RmyYc08YAqMHt2qRcYqhDwaXrTM8+1LTESfSgZoHFIfamSOWlz3po6Uo6UDAUveiigQZ5pQaSj6UALnJpc0zOO9GaAHcUUgpRTASilppNIYvSloFKBnFAg7UuKMUlMBaSjmjGKQBg0tH4UopgIaiJ5xUtMZcigBB1p+cVHjFLzQApekzSYpwWgAApcU4Lig+3WgBucUcmjbzzTsUCGNzx2pdvGBQBliafgUWGMxS0/GelJtpgNowMUpBo29qAIgCrEU/tQV+anYoAUc1s+Gv+QjJ/1xP8xWP7VseGv+QjJ/1xP8xSewGZqJ/wCJlc/9dn/mar9as6gP+Jjc/wDXZ/5mq+KkYmKCOOtLRigBoBpaKKAEFKKMcUUALTTTuKb1oYCZpce1HrR3pAFFHNAoAXHNFGM80UwDFFFFACE0lKaTFIBRTsUynCmAY4zR3pTmkIoEAHtQc9qTmjNACYpMc07g0lAxKM0HFGaAG0obHUUE0lIBTzRTc4704c0wGmm4p5phpDQh9qQg56UuKXODQMb7U1h6U88000gGkccUhUGjJzSE0hiYFMYinMfeo2XPWkxkbjI4qBhVhhxx+VQucGoZSIG61G+cHtUzc9qrynHGazZSKMzGNzzVGVsckmr06Z6nmqckIYEZqTVFRF86XYDjNVZdoz1H1q48BUZVuapTE87uc1SY2iDIGSRUTtjkVIRxjPFRu4JwBzVozexHuz1FJyBnFOJ6+tRgN0PNUQ0DHPPGaY3AqXaD1o2jGKaJsVVGW9KcV9DUxgPaoyu3imK1iP5l5oZ+AcU7GWHOM0/yTtzL8o7DvTEQmYupXtQo2gbuR7U1lAGVP1qSKMSDPOKBdSzEjZDlvl7VbjXdnbgnqeai8jyrcO5GH+5jrQlwqjdGBuAwQR1FKxadhzT5OOAKnguEjYjblZEKkVnsYyS2849Mc0b8n5cgVPKVzXLDLI5ICGonjZOT+lEtxK2BuO0DgVGkjg5BoskO7E5J6ZqxAhDc9MUkjKzAhAoI6Uof6cUmCRYxsHbINOSYbfm5NVTIT3pVOTipt3L5tdC0kozkcVKszMOTVdIuMk4FTQxl2wBxUtorVliOV1OVzVoSM6KXyDg9KijgZTyfpU6rk5bg1Nyki1bozIKuR7kI56VVhcAbc1bTGODmkmZyL0M4bgnmrAflSO3FZsQjV8lsGrQlGDz0raMjJo0VywqQCoIXygOeoqYHgYFbJmbH+xpwpg6UpzTEOyaUH1FNUmnDNMB2e+KKBS0CAHNLxSdKWgQhozSH60CmAvWjGDQKXIpDEPWl6UhI4wKM0wHHkU3nNLnmlxQAgp60zpS7sUAO68UHikB5pe9MBM9qUUAZ5pelAhab3zRmjNAWDPNBopTQA0jNGynAflS8YoAbs5p2AKO3FIfamAE56UAe1KB2oHNAARmg/dNLTWPy0ANUcU4CjNKKAHUGkBoJoEJR9KMUtAxCORRR3pwFADea2PDX/IRk/wCuJ/mKycVr+G/+Qg//AFyP8xQ9hGbqH/IRuf8Ars38zVep9QP/ABMbr/rs/wDM1BnipKDjFJS44pOec0AJRxSGm5PSkA/NJmm596N1ADqMU0NzS5x3oGLR9KKM0hBzS4zzSUooAB6UYopM0AKP1oxRnFANMAApCKM0uM0ANxTgOKTv604UgFPAptKab3zTELmk70UhoAKQ+lLntSGgYhyaQDHWlzikzmgQ8Djim4NOBwKaTQMQ0h4FLgn2pOTSATNBIoxSUDDOe1H4UtJkg0hhTTjNKaaRQAhFMYelONNOaQxhWmOwUVIelQyE4NJlIiLnFV5Jae+R3NQSIduQeaxk2UkRSTMw+U4qq6yYzupshkjY7qQzl+DxWZqkQSSH3Jqu9xwcCrMrqFqq0g5GKooqy3DnPaqjlmfB6Vdl2sPpVOQHPFUiG2V2JyQB0ph61ZMfT0qNoxiquTYh2nBJ/KnIFPHSkLENj0pSQQKYIcQFNG1Sc0oGe9KT3IGKQ7EbHFQsMip35GRUDNx0zVoiRX+bf9TSuzE8nOKsBQHX5QcevenSWyGVirArnjFUZ2KkSFsk8CrFujbOGGOnJqRIlYEZC4HGaUxmORlypT1oC1mOfaIlXcTt6+gquVLNtUc+1P2uEO09e1JG00ZBAAPqBUltES28vckAngkVMmV+8Bx6VIJZCApwB6elDLjgihsFEY2xjkHHtTMqp9T+lKyY6cU3PGDz70AxTMuM96aspY8Lx70vlBsVYjgA7Uh2bIxmplBAHFKyKmCabcO7RgRfpSepS0Jg524Aq1byLGvPXvWfF5m3DnnFTIhb1+tQ4otNmot0uOCB9TS/aN/QiqUMKnrzVyK2yw29KixY+N27kkVbUynGKcluoCnq2MtirKRgDKn8KGTew+FSQM9a0YU7dciqcCbjxWhANuBVxRlJi2u4ryTwauq37vB9eKgiA/OrGflCqOlboyY4dqcwxQoGcmlPrVEgKXtSAd80Zx0oEO6UvNNFOA96YDh05ozRxR17UAIfegilxRimAlJ0pcUnagA60tGcUtIYZApcgnikwcUn4UxCmjpRRxQAoJpc5NJRmgBwNBNAPHvSUxBzR7Uo5paADOKOtFJmgBc+lKOTSd6M80AL0oFGfWjPFMBRQfailzQAg4prcfnTqa3agQmc0oNJijFAxc0vWminCgBcYooBpSOKBDRyfanD2pAMClHTNMArX8N/8hCT/rkf5isitfw3/wAhGT/rkf5ik9gMzUP+Qjc/9dn/AJmq9WtQH/Exuf8Ars/8zVcgVJQ3d6UduKXFJ0+lAEdJinkDNJSAb3o60uKXbSGNxS04Dml20xCA4BGKbn86kPTimFe9ACdKdnNJilAIFIBabntS5oIwuaACjigUUALRSZpaYCHNHNBpM0gHc4pQKaD2pwY0xCbaQjFO3ACmkk9qAENGfagZoYY470DEIBpNuKM+1IWNK4CjrRmm5zSgcUwFJpMfgKMc0rD5BQAwsBSdaQ+1FIYcmjac4PWnKcGgnaxINIBp64HNNYYPJzTwRuyR1phX5qBgV4z296iZqkmDYHORiqrOQeaQ0OLZprGmLJlitIxapZRFOBjPSqjse5q1LzVSUDae9ZSRaKsrqcg81nSP8xAPerkgwDnIPpWfL8r59ag2iNKNvyxJFQSMFbuBVvKlc55qtNhlwfzoQ2Vy4IOKgZ8NmnyAJzmoHbIOK0STMnoSlxiq7uRxmmyMduKrbixOQR+NUkS5ErSAdaTeByDxURRh+NNUEdKuxF2WBIaUS1BliMilDZGCaVh8zJ93AqNjg80ke5jj+dPlQEbQfr70aBq0Ridc7QeKeJFRdwP4VCtvj5qSQHscU9CdS7bzJ8xbGCOc1GArkupJ55BqqsighTzmrCuFGBQF7llRke1KVAFQrLxgc0jTsh+YcVNmapoVuDkilB3DnrTGdHXIbHpUQfnbTFdIVkkLH5+KcsJ7nNSAgLuP5UjyhlwvWi4tCRAF61IGYjC9AarB9w56inCU44NSyotEro27O4Y9KUA4zSId5yamOAuF6mp2K3GR8k1Yt+pU8GoVXGM+tTqnfPzUmwRIVKtwavQOFXDGq0JBXDDmrMUPH1rM0L0cgHQ/WpGDHaV6NUEEIIJJxWjbKGiMeRx0wO9OKuzOTH22DwDyOpq8nbiqsC7OOgFXIyOnY1skZNkkQyD9akQ84NRxjGfTNTKo6itESSA0ufemjinrgCmSxeaXFGe1H480xARg9KUZxzQOnaimA4UuaOMUD2oEL1FJRQc9aYB1ptOHSkxmkMQClpO/FL1oAXNHWilGMUCE6CkB5xTmGRTAMmmA7OOKWm/WnL0oAXn8KUCiimAYpeDSUHPWgQppDmil70AGMUtFGaYB9KQijIoJFIAHtThTRSigBR1pH6jFKDntSE88UxAOaMUZz7UZx3oGNxS96WjFAhV6cUp9KBgUd80wCjoaXNHekAhrW8Nf8hGT/rif5isg1r+Gv+QjJ/1xP8xSYzP1D/kIXPP/AC2f+ZqDpVi//wCQjc/9dW/mar+tIBKSnUnFAxpFJinU3qKQCYBNLik6UZoAdnFGaTOaKAF/CiikPNIAoPFJjnFFMA70dsUv0pOaQBkAcUZpCKOlAC0uKM5ozxTAQikIpwoIJNADR9aXOOlLtOaMUgGmkBxTv50mM0AOUimsMNigdKU/nTENAwKaalzxio3FAxhXmnKccU3P0pwPtQIXFIelJlyemPrRtc9WpDDAppwKUx9txo8tfTmkMQunrimmRfc0/aB2FNYCgEM3/wCyTTS7dkJqQnHemmgYxncrjZ+ZqMq3oM1NTGpDKxRgc/KDUbK394VbIFQuAD0qWWmUpWYA/NVKRyD8zVozQhhnoayLqCUse4rGVzSIyQgrwaz7hsZ6VYkjdF+Y8VANjdWFRqapFR5GRcj8qrvcErVq48vsQfpVPame5zVqxL0ImkLmo2LKOFqRwo/hOajLHPFWjNkDSn+JTTN+7nBFWCDg/pUTI2MgZqkQ0xN3OadhSOlJj1WhjjoPwp3C3cayZB5qHymzwc1IHJBLDGKEk+8dp4FPUl2DeE+Veo60olJqLHzcCnE7RmmCdhxlbpmmg5BOOabuyaUfJ81AriQoGLFuD7U9gVwPWmxzbeNo5702VnbpQJPQuxlVUEHJocK4yetVIt4XOasRnnLGpaLUtBgj61KiqOB+tK3I44FIDjtTuKwu055/WopSwbCLmnb8k57U4MDxikXuQqzbsMPxqXyzweaceuaeDRcF5ixqcZzViMepqBZMfSlWQ7h7VDNFYuCPNPjiw2M81FFNjBNWFk3YrN3LVieOM4BxV2JMjearRygAACp45G4OKkplxITtUk4zyatR8EYqrHMzDBUc1ftQE+YpubHHPFWtTCRKybZeasxAHFRNkxqwXHPPvU6AHp6VqkZj1wMgetSgEjIOKhjUjJx1qxGOeufWrJFTgc8mn8daZThyMUxCjFOzTQOKXHXmmIdxigYpBigCmA8Uvemr9aceO1AgoozRmgANJQaXoOaAG9T0pelHWlCnNAxOc0tLiigAxxmjGKBTscUxDD15p30oxSYx70ALQOtKBRQIBzSmiimAntTsCjp3ooEBz2pKXHFKRxTAZ9aOlLj0pcd6AEoJOKKOtIYlNJ+anY54pmPmNADgcCnA0ylpgPzmnY7imA804UCFozikJyKKAFzRk02lB4zTAX861vDX/IRk/wCuR/mKyAa1/Df/ACEZP+uJ/mKT2Az9QP8AxMbn/rq/8zUBNS6gf+Jjdf8AXZ/5mq+agod1opKWmAUhHNLSGgBMUmKU+1GPekAYpMU7NBGaAGiilbgD3pOlACgetITS0Y70gG854o5pcUtACfWgilxzQBQA2loI9KOlMBRS5ptOxQAZFJxQTzSE0AJ35oFBOTxQAaBABQcUuMe9H0oAbg0u3PU0FgOppvmop6igB2xR2o6Uxpx2yfwpnmseiGgZL1HFNP1qPdMRwgFIVmPBcAH0FICWkP1xUXksesp/Cg2yEclj+NLUY5pFUcsPzqIzR93AFOFrF025+tONvHtwFH5UagRG5hzjJP4U0TqeiOfwqcIq8YFOyAOKLDKhmk/hgb8aYWnbpEB9TVpsmm49qVhlQi6J5EYFNMVwx5lUfQVcNRlGwT2FKw7lGSCTGGmY/Sq0lmrfedz+NaDMC205B7Z71FIvGRUNFJmRPZJ2Un6mqEluq5AQZrddaoXSLjORms2rGsWYs0YFUpQc4/WtSSPcTjpVKRcAihMqSM+ZHaM7M7qjgjlUEufzq07DOOtMyAck9Ooq7mdtRGwEzg1EMnoanJGDUDEICQKENjH4BBqPIzTmJYH0qEkk8VaM2x5I60dUJ9aAmac3GB6UCZGF7mmOjHHPFSkkt0ppPGO9MljFQAHuaRwSOtLuwRyM0jHcDzTFYj6Y4qTINNUj05oUc5PSgRIhx14oMjt0H0qNufw6U+JuCDQMclwRw3Spd4I4zUBZSQCKduwPbsKTKTJCcDOKUdMimZ4xSFscDikO5NnpVhAMciqajA61YR+ACeKTKiSEDPvQyEc0IyhgcigvhuOQag0Jo8datKBgY71QTlsYOPWpo5NvGe9S0NM1Y0GwEjmtG1jBZVxnNZFpfkShWUFCcHHpWwL2G0nKwDdjue1JIbb6FiGDbI28ZIPerqYxUEUsUsJmZyrZwRU0MiMOP1qzJ3JwS0DA546VYiAWIknnGBUYZTCygAHHX1p4I8pc/jWiMyZFwKkB2rgADPeoo2LDKjingmqEPA4pVyzdOKjBIp4fB/wpiH9TijPNIHxnjrQDmmIcKUYzTR+VOAoAeOBSHmjHvSUxB2paT2pc4oADnNB6UoYZo9aAEFOptAyDQA4mmknNBpOfSgY8Glz700ZPalwaYhQRTgM8im4Gc07pQIOlISKUjIoAFACDrmnCjilApgJSjFBHFAoAXFFGMUvtQIbjFBpcUDrQMaBRj0p3SgnigBmKaBmnNwucc0KOBQAmDS49KXHNA70wAD1pcUUUAJzmlopaAA0nWlx6U3vQIUGtfw1j+0JP+uR/mKye1a/hvH9oP/1yP8xSewGXqB/4mV1/12f+Zqv1NWNRz/aV1/12f+ZqsDUlDgadTKcDQAtFKKCOKYhMZFNNLSGkMXHNFJml7ZoAQ80lKaTHFABmndqaKM0ALRSc0uaADH5Ue1LRnNADaSnYoIFACfhRmjpSFhQAtBAzTdx9KQoT1NIBS4UYpvmZ6AmneUB2pwGKAI/3h6DFGxzwWP4VLnPSjpQBCYR3JNOEajsKf36Ud6LANH0pD7U4j1pADTAQkigEHilI9abtz0pANPWgkkUrZHvRnNACD3paXAzgU0qc0ABHFN6U7gU0jigY1qYTUhGabtpARHg09hviwp5HX3oZaYeKRRXmhOVJ4waZJ05qdhnnOaikIxg0mNFG4bC8VlylnbBrVmjLZ7VReMDJNZSRrFmbKQOMnNUrggfWr1yoDbhyaz5UZmz61NkaNlGTJpnNXDAQOnNRNEavmRnZkBY/nUTAk8/lU5TB54qJ1ORgUxMiJwDjkCmDg9RmnuMcVBJuAJAqiWSNICeDj1piszOc5ojTahLdaTcT3p2FcCTngYprOQeKViWOBwKCcYxTJbIzuJyeBQfelzuz3pAM45oJDrginMw7CjjHJxTSuRQAZNSBSVBFNUetSj7uKBpDWjBOc03uO9S9+BRsytIqwg6+9IyselOCYI9KeB60ACodvPX0FOCkjqfpT0XJ9qlC4NTc0SIVUYweT1pyrn8Kn8ok5xTWixx61LaHZoYiMCcE1ZhhJwVHSmQxhO5P1rUskBJGM1LZaRJYWlu0oeTeMc7QOtaS6cJ5jIpC7j930ptvEFk+XvWnFF0zUrUT0egq6fGsG0OWdTkgdBRHC+cdKtICowOAetSYXPTH0rTlTM7sjVWUGpkVWXazdeTTZWKxhQOpojXM5YntiqWjIZYjUq+CaU9xUkKq+VPBxlTUZUg8jmtOggx2zTh6UnalGc0gHCnIPmFNGKlHyrx1piAj5sU5RTc5OacDxTEwINHTrTvrQQKYhvbimHnINSggcY60xhQA3OKcCcdTj0pmDnmn0DFFLjvSL1ApxoEN70o60d6cFFAAAM0Gl4pCOaYBmm7uaUfSmcqaBEqtTxUamnjGKADFGaXrSEUAJn3pwpoFPFMBaSnUlAhPejFLRnigBpFL+FFHQZoAY33sUopo5Jp9AxaO9FKBnvQISkxzTsUYoAQUUGjjNAC9KTFFJQAoGK1vDX/IRk/64n+YrJ61r+G/+QhJ/wBcj/MUPYDM1Ef8TG5/67P/ADNVsCreof8AIRuf+uz/AMzVUipKExRRS49aAFFLmkz6UmTQApNNpe9NyMUALS9KZmlzSAXPtR1pKWmAYoxQaUc8UAKBkUUmaTNADh6UUA8UFqAFzimk+1A5paBDCD3oAApTiigY7APtTCeetOBxwaQrz7UCFGTzS4BpACBzRnmgYGk6daX60mMmgQE9hSc07iggUDuIPU0HNKKMZoAQ4pvc0uKSgBCM0wg59KeaaKQB070E0Gk7UDEx3pM5OMU4D1oPHSgBhODSZwKVgSeKbtPrSHYQknkUxl/GpCAOlJjjJpgQMOKhYc4NWnFQMvepZSK0gOPQVlXBO44rXdc8VTmhGeBWci4sxZYmPJ4FQvAQMiteaHIxjmojb4XpU2L5jCkDhs1HJuIxitea3GOADVSa3IXsKLFXMoxl2CionDKSPSrrw5bGRUTW7Hgc1RBR2fN9alWIt0HNWFtyDzx9asBI1wep9BUtjjEzXiCDnqagZOfwrSlTzWIPAFVHj2EjHNNMUolVgNpNQgFjirO3dkdKTywD/WtEZOJCFPIzTguKnWIMDkdKQoQc56UXCxDhChJBzmkA46U9gS3oPakAOfSmKwh6e1AJXk1IQCoppBHHakOxIibgGzSqnUmhFBXANGSOPSpLtoOVcjFOVeopoOO9KXCNnOM0wWhKkRLdOnapQuHHtUaSHFTZyc45rN3L0sTLgHBp3lA8nmoE571bgVtueuKl6FrUj2YPTBrQtIG2ggH61HBbGaQEcCty2iCqFxQLYbbRng9600j+UcVFFEA2AKvRpxVRiZyYxUIHNShe9PVQRS7cVrYzuV3G5wMVMqYAFNXDymrAGRQkISNlHU05jv5J59aaUytMDMvuKYD6ctIGD4IqQAU0IAvPHenMMUBlXoOaTOTTEKOKcCKac04dKAF7UuM0lLTEBpOlKeaTGKAG7c9KXGO9KODS4FAACBQaTFL0oAQDmnjg0gpaAFpOKDmlFMBOAKTbmnEUCgQgGKcaKMDPFMABpeaSncUgE704dabmj60AOPNL9KQcingUCGYo6U4jjNN70wG0jHPyintwKYo70AAXFLjmnACjFACGl7UUUAANGaOlBoATOaPrQBQelMBM5pR0pMcUozQAcCtfw3/yEH/64n+YrI79K1/Df/IRk/64n+YoewGff/8AIRuf+uzfzNViKs3/APyEbn/rq/8AM1W61BQmKXFL0pDQAmKQinHuabnigBGOBUZapH5FRfSkNC7s0uaYKcKQx4paQUtMQGgUoHNBxQAmKQnAoNNPIoEBc54NIDTWHB9qF5FAEoNPOaYuR1p1MBD60Ad6XtRTAMZ60DjtTqb0pCHE5WmgYGaKT3oGLRmk+lKBQAlKxAFHQ802T71AhuaXcfX8KZmjdQMlV+eaQkdc0zcKQ4pAO60YzSDrS5NADe9H1pe9IaBhSHOKKVRnp0oATA9KaV9O9K7AdPzphJ9aAF2nHNNOTwKQluxpu855H5Uhg3A96YRnnFPDKeh5oNAEDqOarSL81XG5qJ0B+tS0Wik6g1BIhPfirrxelRMh71DRSM5ogKpzxbyQF6etakid6rsp6kVJaZkSW2B0qu0ZGccVqzKP4elUp04z/KpbLKLKD96mq23vSybhxj8ajLfhRuFh0rLtx3NU3JYnJz2qRss23NNML4IyaqKsTJkW0A8Uuw56VOIfl+lOEeO3NVzEcpXcELgVGR2q88Xy8CqzrihMGiExjr3oKdakxnmkI71QiMLuWkcECplQgZoIyOnSi4WIkzjGKcVwwp4HzA9MUrKevNILDSm7mnBQVANKvp61IFOcmlcaGKrKenFTLkkClwDkYpE+U8jikVaxZSHmrsabIyR+NVUbaRzketWRKPLI71k3qbJJGhp6DbWtEvORWTpp3A+ta8YIGRTRlItRDOKuIveqkXGDVxCB2reJixduDTZWwhweTwKlyCOlVzh3z2XpVkixIFqYGo16U8YpAOzgZpGTPI6ikY/LTwexoEMCc5Xg/wA6kV9xwRgjtRtwaGQN6g9jTC4uBnNKo70xWOdjcN/OplA2DmmAmDSZP0p+cGmsMcjpQIBx0p/bjpUYJ9Klx8opiEPNIaUikPSgAFL3oBx1FBOegoAKNtIKcKBirxQaTNHBoEKD707tTMU4GmAdqSndqbigQvvS5pvejpQMdmlpoFKKBCmlAz1pM0AmgB60+mA07dTBgTxTCcdaGbFMOSeaVxCnnmnDpSKM04UwDiijNITQAEc0daCeaKYBRSUGgA3UZ9abjvzSjPpQA6l+lAPFKKAEIrV8N/8AIRk/64n+YrLNanhv/kIyf9cj/MUPYSM7UB/xMbn/AK6v/M1BVjUP+Qhc/wDXZ/5mq4qCxaTrS0UwEYcUzFPPFIaQDPr0qNhUhpMUhkeOacB6U7FPQAH3oAZjil70EfNSE0AOFBxim5paAE60mKWjoKAGlaUKAMUue1A5oAB+dLRjAooEKBk0opucdaXPHNMQE9qKTNANAxaM0nFA9aAFx60tJj3o6UCFpr8r9KXJpM0gIiKXHfFPwM0YFAyP60ACpNgpu0Z60AIBzTiOKX5V9c0h5oAbmkINOxRigCPHrT84jJoIpVG5StAFYk03JzzUxHGKjYYpFIQmkpcUo+lAyJhnFOzuHvUgUHoOTTSoWgQxuBUTcDpUrdahcmkMjZgTUZGaGHNIxwM9vWkxoY8QNV5k44qyzYB5qu/zEn0rKRoihNF7c1QuFYA1suueaoXCLuINZtmsTDnJAzUAYkjvmr91EGyU/Goo7NzyBz6001YbTuQrEN+4cGlZSS3rV6O0IIzSPblWPHGKLisUVjIGSOKcke45qeRSy7R+VTw2/wC7Bbg0DSKEhI4NRiHea0JoAOi/nTRFt4bv6VV0iWrme1u6jpSNCI8HcOa0pUAVaZJApXOKOe4chRRA2BSNBgnBqVf3RNSqwYj0pXsOy6lVoyKeIyU4NSSkbsYoU4JxTu7E21IzFhc46U9U3ZOKeDuzxVyOEYBGKXMXylEKOuOvrS7cnGK0PswOTgfhTBbfN3ouKxS2sB04FWIULirj2aeUNuWJ65HSmi3khIZFLA9hSZSLNlujlHGK3IhzjNZ0CJI2AQcAZA7GtS3jIxnpTijOTLEa84qQybZNgHbmlRe9PYKBkjk1ukYsUk7MKOaQLtAA/GnptCHnLGkU5bmmIUUGlwKMHHSgQwnlRnqamAAUdz3qIKfMHPQVIVOOKEDFyTTgxHbNIAcYpc1QhzqGGDQrnO09R+tPjAKkEE+lRyjJyvBFMVyTrxSqAM5/KmQsGBJ4xxTt3zUCHDA5wDQSD9aVgT+NNAxQAdqTHrTh6fpQQaADHFN704CjBzQAgFLjB5pQMUE80wAjFHGKWjGBQAmDS49KBQfrQAUuabn8qO9AC0nfNIOtOzSAM4pfrTe1FACk0A0lAoAduxRuJ4zSgUYoAB0p2PSmjilzQIUcGlxTaXvVCFpMUtGM0AJijHrR+FHNMAxRj1oo70AIRQBmg0d6AHAUvQ0gpRQAE1q+HP8AkIyH/pkf5isk1reHP+QhJ/1yP8xSYGdf/wDIQuf+uz/zNV8c1PfnGo3P/XV/5mq4qSh1FN5pc0wAmkNBpDzSASigGigYYxSd6Wg0gAcUwjmnUn0oEKeFpM0E005oGh2aBTRThQMUAUbaKWmIDSZxS5pCOKQCUfzoxQRQAU7tTQKdzjFAg4pDSdKXJpgKKXjoaTtzS9aAExTSTTs4pM5oAbnmlzSYo+tIB1N70ue1LQA3BpcUYooAKU8CkPtSZpgJjJo5XnNO4pKQCMu75gOaiK9al5BppPPNAyHHNKqFj0qTKjqtIzE+w9qAEJCDA5Pc1Hkmn9B0zSEdxQMjYfLnHFRFasYBFMYA0gKjR+1M5VCpXINWyntTCnWpZSM+UlRjHHaoS2FzWi8QYVVltG7dKxkmaJopvJ8p4zVGRGlY849TWq9oWGD0qGW12qFwfrWbRadjGe1KtmrltBkcdKuCyHc8GporbYMkU0hufYri1DNk8YqOa3DSL8oAIIrQEZbnoBTJoyQGAwAafKTzGI0G1jtXPuaXyXHTv3rXMA54pQIhD5cseQDwV6iiw+Yx2QlcMBxVOSNs10FzCrgGKPYijAGck+5qr9kyckdKVtSlIyfIdx7gU2SORVAORWutsVJwKjntyw6Ggd1cxPJLMcZJpVgdcnaa1EgwelPaMAdKdwsZy26soJ5qQWyj2q3FGxUoMhT1FOS2beykHijoCsUmtgMFeakjjYH2q5HbkSYIq/HZLtGRSSBySKEcZPFO8lgfmH41fWAKeOlSmDdwBVJXJcipHBk4xUV5ZOY8oTnvitJYipHFWxD64Oe1UokuRjaTbNE2SOK3Yo8AUgiVR93FToPlHpVxiRJ3FHSmkEnPan7c9KdgdDV2IGg4BpFGAKdjNOC0WC4hPYUJ97GTTiuMH1qOVtkZPc8CmSPCkszAdT1qaNOMnnFFsv7nnk4qTjbgD8aYmRMvp0NAFPA4x2pQuTgUANxjpSfWpyq7cDkjvUJ9KBEZGxt44B6j1qwiqQGzxURXOR2pEyg8snJ7EUATGXsOKZk9jSYxRmi4ChjnkVJ1HFRCp4yuzJxmmgE6Um7npQxyabTAdvHTpQMetMpQRQA8fWjNMNGc0AO/Gim0D3pAO4pN3bNHWm4oBCg07jrUWSKcDQMfRjHWgdqU9KBCCloAoPFACg0E84ptKKAFzSikxTh0pgOAozSZzxR2oELkUhxQKOlMQppKBRQMM0daKM0CCjtQaAKYBnNKDzim0oNADuprV8Of8hCT/rkf5isntWt4c/5CD/8AXI/zFD2BGbqH/IRuf+ur/wAzVfHerOof8hG5/wCurfzNVqkoM0lKetIfagBM0lFLSGJRRS96ADnoaDQKQcmkIKSlooGJ1oxS0E0DG49KBml6UdqADrS0Ac8UUCEzS5pMUe1ACinYFNFOpiE+gopR1zQaAGn6UtKaMUANozS0mKAFpp60ueKQCgAx6Uc45p3ApM+tIBuKdml/CkPqKAA0nvRnIo60AApD60uKOcUwGHrThzSY96cMKDxSAbTSKccY4pBxQMYaBjvTieajNACtx0OaZS4oYelBQmQDSdT0pyrk01jngcCkA0sOc8U0FTkZ5pxGKaUBHvSAQqBTSgOKkA45ox6flQ0MrmJQxwSRnv2pvlgk5FWChpp5471HKO5WMXNKIx3qfaQelKFJ7UKIXIGUdB0pjx5UjFWjH3xSFKdguVlj3xg0xosHBFWYhtZkPY5FOKKwOc49qLBcq+XkYxx0p32ddvAp8qsFwnfuaSLzwwDEOD14wRRYLjBbL3FMe1Bq7t9aj3IJNhzk+3FHKh3KZsoxjjmq8lmi/eIUZ65rVaPLDFV2tUkcs43H3pco1IpRQRH7hDY9DUotizcHb+FTC1jzlF2kelTBcKCeopcqHcqpa4fcVGfWpcEcVZCccUnlZ68UcorlUR5arCRnNSrEAP608LiqUQuRFQpx609KlTjODwaaAm4IgY98mqsS2KCMU9QMYFIEB+UinogXA7UCYoWnY4oVeaB0xTEN2DOaUAg+tKBx1oDDIoFccDjjqKjdFd1XsOTUp4BPYVGoKjJHLUATKQo2L+dKQVbHb1pFxkFhnFK3PtTELjnilpo4HNN3UAPyAeDQSDyKb1pyDt2oELgHvUcoCkMO3B96lYYprLuBHrQA3igrmiMfLg9RxTsYoAbipkjynJxmmqB1NP3HIFMRGQR3pKkdSKjwetABjNGKWigBvNJnHanigigY0HNKKTHNLQAhbFJkk0Ec0oFAARmkHFOxShaQwHTNLzn2oI7UUxBSmminDmgYCjBoyBSigQopw60mD1oHWmIdiiig0xAKTvS0hNAAaSjFLQAlB60UfWmAo5pKQmgGkMXtRSdaUUxDu1avhv8A5CEn/XI/zFZGc1r+Gz/xMZP+uR/mKTAz7/8A5CNz/wBdW/mar1YvyP7Quef+Wz/zNV+tIoKSloIFADcUhNOxxTcfhSASlxSdKKBinFJRmigAopaSkAGkoo70AHaijrRjmgBRxRmlox7UxDTRilxzR3pAGacpznmm0Z4pgL0GaUGmc5pQaQD6MUgNL1piDGKSlY03PpQAhFANO7Uh4FIYmKO9HtR35oAUZoIFLnik780CE20uaBSGgYGjmjFLigBuOadjIpCOKcAMUwIyKaae/J4pMUgGGmmn0nHTvQMj7UYzSkUgHzUhj4wMEHjioyuKfyOlL9aAIGWm4NWDt7imgqvIXn3pWGMYYbFBXOKX8aP6UANwSaCoB6c0/IpM5oAZgE4pQoAzSkgH60pIA5OKYDG5GAaTFOHTikpDIXGJVbHB4NPKUrxmRGH5URtvQHoaAHGJZIgBjcOvvTWi8hQSeWHHtT8e9LMhyO4xxTEUsXAbd5gI9MVbbaEJ2ZcD8KasZZsCpjIqfKehGPXNFhMhhBZkDLgtUboVcj07UPLI0qnAC+1K8+8gtGc92Heiw7kYTBzUsS/KT0x0zTPMiyPlc1L56PhPL2qe2eaVh3DAI5H5Uu1T0BxTgq5JXgdqAAKYXEC4GKCM8U7BIowQaYhu3ac1MDGPnA2tikK/LTo9vIYdRQDI4tz5JAHpTqkCiNSQcmoA7f3aQrkmaOmD2pu4kA4/Kl3gjGCKAFfsaFANPK5TdkcdqQKwQsF9hTEBzIQnYdaeRxTVUIm0cnv9afn5c0AIDzSkZpANwzjFL0HtQAoG4UwipFPNDAHkUCGD6U9OTS7M+1PwqLwcn1oEITz0zScUe9J35pgNUYkYevNONMbiUe4qTGRQMQYxxTgcUYpfagQE54pGAx0oPB4oPtQANj0xRgEcUc0vTtTAbjijApT1FDdKAGbfejpzTjSE5oAbjFCnNKfegDFIYtL2pKCcUALSED0oDDGc0Z560wEpR0FB6UoxSACM80ozQBmlxzTELnilBptHSgB31ozxSdaXFABmgUlKKoQd6WkoFAAeaTHal7c0lACYxSY9qcaT60hiD0p1IRSimIMela3hrP8AaMn/AFyP8xWVWt4b/wCQhJ/1yP8AMUmBlaj/AMhK55/5bP8AzNV/m45p2p+Z/al3jp5z/wAzVYO4qS7FkMacGqusrZ5FP8wUXETH2pMVGHH0p28HgmmAuOKSlzkZFIaQCUDijrQ3AFAwz6UoximUo4oAdim9KdmkNAB1NFFKKACl6ikNKBQIaaO1OpMUAJig072ooAbR+FLil+tIBop60gxRimAhzupaUcUnfNAgHtSH60uaTPNAw6D3pBQc4pBSAcAKWkFL3pgJxQaDSigBMUhPNP7Uw5oAMmlzSZxSZpAKwzTcccUvakbA4oAbSdqXFA9aYxMcU3HrT6Q9KQCAignNJS0hiEY600ipMZpuKAuMIxmgdM040ntSGIMGkx9KdjBo60AOTa2AVzjgVFKg3EEVIOOlPXbI/wAw5piK6oETimPIR0Ump5nBYhRgUwH2oGgjbcPT601QEmK9n5FSKuTj1pk9vJ98HleRRYVx+2nK/wDCwyBSK29Qw6GnIuXApgJM6qoCYHrVU5z61OyEMQaYyYpMEREelKFyKXbRikUJgdTRgDtTiMUhpgSRDIwODSsCOaZE2HFTy7skgYFAhEhLOrZOMZ4NPZQRkVChOBz3pwVgPlc/Q1RIoOetBGBxQOevBp/8BNIdyIscYJzRmgikFIYq5xinqM9qaOlOXjJPSmIfwvJxxQspfr93+EVDkzNxwg/WngYNFxWJWIPI59akjHBLLwaijYKwJGR3qWVyeM57imIQsEBA/OmhieCKjzzTgaAHgYNOCk0NkgN7UA0AKM9DSEe9HJpeaAEB/KkODTwNykd6YeKBEb8FT71KpOKguDwv1qaLmgY/NGaUnHFIooELwRRR0FGaAAe9LjNJRmmAHrTSOeKXpzScGgBeowaQgUdKM80gEIzSEgLknFDsEGai2mQ5Y/hQMXzCxOwcepo8st1YmnhcUvtQBH5K46Gk8n+6SD9alozQBCTKh5+Ye1SpIGHFO60x4geRwaYEqmlNQxuc7W4NTe9MA6UtJjvRigQo4paTtRmmAd6KKMmgBaXpTc807IoEHWkpaT3oAMUcCig0AJ7UUZo4NAxQK1/Dn/IQk/65H+YrIGa1/Dn/ACEJP+uR/mKT2EZeopnUbr/rq/8AM1V8v2q9qH/IQuf+urfzNV6QyLYPSgoKlxRtosMhKA9qYY+eKsFaTbSsFyvhlzgmlEjL94VIV5pCuaLAIJVPXinbgw4NRsg9KbsI6HFIZLilA71Hlh70olHcEUAP60h60oIYcGgjmmISlpKdQACnZ4pucGigB1JigGl70AA6c0HpSd6PrQAZ5oxmkpR+tIAxSn6UClBpgAHGabin00igQmKSlFBNAwxTce9OFBHekA3GDS85pT6UlMBaPekzS0CDPFIxpeoppNAAORnPApmfSnnlCAaj+tIY4GlIpFBNKDTAQrSH0FSEZphGKQIaeBSYJHBpTSigYwrjpTtvSg0A96AE6UpQkDH40hPNOyY4892oAibGaXGKYeTmpGwMUhjcUoGBSij6UguNzn2pyg7WPoKaelPhYAkHoRTEVyKUD1qV4+emR60gQngDNA7gnLfSlLE8ZpdoQdeTUZcj+HNAhqt5chj7NyKk5BBFRMu8ZHBHIqZGDqDQMcwEo3Dg96iI7GpOlP4YYYUxFYjFJjPNStHjpTcEdqRQwimkAmpME9qckLMwAHWgCOJMNmlc5PXirfkqsRXIL4yfaqhU0wvcQHinAkUzOKdnNAEgxxUsWCCp7iq4PHAqWI/MM0XJsRuMMQe1N71dmiV/u/e/nVYps+9SY0wRRjJ4HrTMmY7cfIP1pW3SYBGFHapFQ44FMBFAHFLjmnhD34pNoB+8KLCuJjpirARWTaT82Mj/AAoVIwobduJHHHAqJmJ+opoRGQQeeKcik/TvUzbdgO3kjmlDBlKqu3joKLBcY54GDQoz9aZ3qROvHNAB9aNwHalI5weKaTzQIcGFBKt0603pQuVbI60AMljOVB9amX5VwMUxzudfWnEEfWgYud9HQelIoY8qM0hOTTELzRS9hSNSAXPagHmkzQRmmMGzQOad1HNNPFAgbOaYWCgkmnE5qJvmfaOgpXHYaAXbc35VMi4FKo4p2aAEwd1BUDmlzQeRTERnn2oWlI9KVRjk0DFpcUA0UxDXTcPQjoaSN88HgjrT/pTXGDuH40gJO1Hamg06mADOaKBRzTEH4UZ9qPxooAAKKXqKSgYA07PFNBooAXiik7Ue2aAAgUDpRjHSkFADhWv4c/5CEn/XI/zFY/41r+G/+QhJ/wBcj/MUPYRRv+b+5/66t/M1Xqzff8hC4/66t/M1XxSGNpcUpFJikAUlL2o6UAN7Uhp1IaAGFeaQjrT/AGpKQyPFBGeKfjNGKAItmOnFAZ1681IBzxQR60DGq6t3waeKYUB7Uw7k6HNICU9aD7UxZB/EMVJ1FMQClzzSUuKAEpe1J3pRQAYpQKAKUUgAdaKUgU09aYgzmgdc0e1GOc0AB6UlOxSFeaAEHIoB9aNtGBSAKMe1LQaYxtLQaQ8UALgdKQ8UdaTOaBAQRSU4HIpMUDDPGBxRjNBFHagBw9KawPNKDig0gI8UdacRxTaBh1oAopwHFAhpBNOIDLtPajFBJIx60AMWPc3JAFLKBxt6e9BzjFLn5cHmgBiodpPpSkYpxb5doGBSHkUANIo20vIFFAwBK9KcXKqSeppuNvJph9aBCHJNA5pe1AHFIY3bSKSkmGHyt0PvTxQ43rg/WgB2B3NJn0NIDuQN+FNKg89KYDwSelKGORwDSgDaCKMLk+uKAuJIQuNp+tQkEnkn86cRScg0XHYljc7xuOeMUyVSjUKOferTKrqoGAxGRRuLYokUmD0qcoVJBFNCc8Uh3GqvrUsa84pFUZwcn2FPc4G3ofQdqBNhJIARszxwTUbFi2c/Uml9qXgUwG5b61IGbpmm96cKAEIzTSKecHtSGgBUOCOelTtGu7Ptmq/epGc7cU7iFZgRwKYrFCMdqTPFID60AS7fMG7gCnqQowPzqOM4fHY08jBoEEnPzDvTDTgxAOKbkZ5GKAChaKUZ9KBiDmQ+1SdaZH0JPrT6AHAlenamlR14+lBYjg0jg9RTEIx/KlySKTHrTtuBSGNxzSjpQecUuKYhaY3FP7Uw8mgZG7bUJ79qbGuBQ53OF9KkAGKkY4DilPNJmgZxVCFxRiiloASkNLx2pOtAgFOxSAUoFAwoxmlo70CGKMcHtUnH40h4YGjpTAXHFGDQMelL1piGkUlLR7GgYZooGPSloATFHSlPFJwaAEJoxSkUcGgA/lQBRS4oEFa/hz/kISf9cj/MVkjFa3hz/kIP/wBcj/MUPYClff8AH/cf9dW/marmp77/AI/7j/rq/wDM1BSGIaTvS0CgBKXtRSUAFJR39qKQCGkPSgk0meKQxDQaaTmkyxoAkzSFhikC5pdtADSwxSbhTtv5UY9qAGHaetIOD8rVJtzSFB6UgASdm4p5qBoyfWmgyR+4ouBZApcHvUSTg8H5TUwxTAQHBpTRS4zQA05FBPFKRgUnagAFOFNFOGBQIP607tTaWgAIpmOafnrSHmgBhoHvSkUlIYoHtSHmjNBJpgNPBo6mlooAMUoFJS5oEIelGMil4pDx0oGGKQ07qM0hANACYpCKCO4oHNIAAH40uMUY5ozQAc9e1BFGcDrSUAIaOlKASeKCPWgBpIz70vAFIBk06UYO3HFADcA85zRjA3H8KVV9OlEoPAPpQBGSSeaTk0tIetABj1o6UuaTrQMM0A8UhoFACEhGLHoetOxQRkc1HGxDGNjyOn0pATo2OPWnL8r8j2pgHOalblA/foaYEUibenTtTMY681OpyvNRPgHnFIECDnip2yoGMcDrUKycfIvPrS4LAhmNMGKHQLjGWzQAT14HoKI4skADFPcjdxQJCLweFApjfeNPyM011wxoGNxRQBSgc0gDjvSjrTSMHPalHvTAdxijGTR60UxAFORmgjtTl5pD1pARnNAPNOPNGBQMch705nyOtNHApueaBDgaOppBRxTAXHtUm75MetMGMUi/PJtzxQA7gYHSjJoII4pO9AhwOTTgcCo/pUgbeMY5FMBoODT+ppoQ9+BSkgdDQAHgUZoD54NGO4oAXtTTwM0EgCmSnCY9aQyNFyS3c1KAcUijj6U4Uhhg96XGKXijOKYhKKWkJpiCk70Z4oBoGL2paQUueKAFopM/nSc0xCt936Uo5FNPSlX7vFAC8ijPFL2xR2pgJ7Uc0GkpAOFJSbhS0AHSikooCw6koHIpQMUwCijvRzQIMVr+HB/p8n/XI/zFZNa/hz/j/f8A65H+YoewFC+/4/7n/rq38zVc1Yv/APkIXP8A11b+ZqvSQwHXrRRRQAYoIooNACGmjpSmjBNIBpOelNxmpcYFJtoGRYFOApSKAKVgE6UgJzSngUwnNAEmKTvS/hS4oENpQKX6UvegYm0YpjJzUh/KkoEQNGCOlIN8XQ5HpUxHNNK80rDBJlbg8H3qXOBVZowaQO8ZweRQBayDSU1HVhweacSKYCUuaTvRnigQoNGaQGk6nrQA7NLSdqKAA00nFOJ/Cmk0AJ1paNvBPemqpJpDFpaAMUpoAbj1oxSk009aYC0uARTaUE5oACDQBinH9KMUAIRmk24FO+lNGc0AJ9aMZpSO1IQRQAdKXOOab35pTSAX6UjfrS8AYFLgdaYEYU5p5O7r1pwHWmlcdKQCggL70MN6g9xTRTwe1AFcjBxRipWAPambec0ANI5ppFSEU3FIYzFKBQVNL0HJxTAXaaaUzyOo6UjS44Xk0geTPUUCJpAEVWB4Zc/SmCYAcDNMUEthjkdqeAMUAKNzDJ4+lAUbhnmnR9DnimseaQx6gKpxSYyM1HuPSnqcigBckCjqKB97HrS4xxQAYxTuHX0I703rSrmmAhBFIOTinluMUmB6UCGkUYpWGKP50AJTgKBT0XcwGQPrTARAQ2e1OkUBty9DS4AGKbu7UAR4qQRn+IYoIIG6jfu60AOZBs47VCRzUwbtTHUg4NAEYpcGg0A+lIAztUk02Dk5PemyEswUVKgwKYErjB4qLoalPKA1GRk0CDmlU4I9qTFApjJHbOeai3c09lOKjzQKw7vTy3FRilzSGGe1Qlt0mOwqUnAz6VDGhyWPekwLCHpzTm44FNRciimAZIo60GlCkjIoATNLTdpHNOxxmmAh6UD2pQCwxjpTuAMYoQXExSjpQWyaM0xAKUUd6XigBMZpF4FLntQCKAFo9qKKYB9aaRxTzzzSEUANIwKKDRj8qQCdaBTscUuKAEpR0oo6DFMApaTt0pfxoEFa3hz/AJCD/wDXI/zFZHfmtfw5/wAhCT/rkf5ih7AUL/8A5CNx/wBdW/magqa//wCQjcf9dW/magz6VNxi9KKTOKN3FACmmlqTqetLjmgAApRSEccUCgBaWkA4o70CDFJinUlAxjAUwjkVLxRtGaAAClxR3o7UAJ0NLR2pKAA4zSEDHBpetJikMSjtzQRSUAIRSMvrTs0UAQNGQcrxTllI+VxUhApjKCORSsMkyDyDQOTVc7oz8pqWKQOOeDTQiUDmkxSniigQUcUhOKbkE4oAeaTHNP7U0igYmOKQnFOpCM0ANB5p2DikxQaAAik2mnD2pe9ADCtHNPwDTSKLAApc+tHFLigBOgAoxQBzTqBDcc0EetOFI2SKBjMUhGKUUpGRSAbShqTFCjigB+aQmlAHB7YpDzQAUmKdjFIzAdTigBO1NzzSFwegyaPnPtQAE/lTCcnjJpwX1pxHANIYwBj7UeUrDDVMoGKYw5zTAi8sL2pAOalznrTSOeKQDdnvin7Mj36GlwFwTSbu4oAVkKj60zHPNSlsrg0wg0AiMjFPTAxRjNORBnk0DHsVU7gBSAErupj5DY7VKAyxgjHPanckjGScU4ChBh89RQ5weD1oGJlc80bh6U3vQetAgJpSox3pOtKCOlADcYp4pCKKAH7uRTynGc1CM5qXd+7GaYDC1NzSHOaKAHg1KRkc9Kh/CplIZMY6UARlcUx8IMmpSeOaYyhz7UAQxrzuNTYGKTbinUASINy470wjB5pyfL60Ng80xDDxTkHPNKMDmm5pDJCwZdvpUJHPSnZOc08jPNMQxVHenOgzx0peMUHp70DK833cetORQAKSTlwPSngUhjgegoI4pvT60ZJoELt5pwOKB0oxTAMc0MO9GOKMUACjvmmtwacOKaeaAEBpwPNJilGRzQA7pRSZpc8UAH1oApKM8UxDqKbSigBSfajrS0YpiEFGKWkxQADpTgOKaKXeBx1oAWkxQSx6U07vWgB3akNREt60ZYe9IZJWv4b/AOQhJ/1yP8xWH5oHU1teGWB1GT/rif5ihvQCnfn/AImFz/11b+Zqr9as3/8AyELn/rq38zVYkd6QxCe1KBnrQBTqACijNJmgBaMCjNFAgzS5ptL2pgL70hozSUgCgmgUmDmgAzzQSQaKD1oAAe9L1HSkAGadxQAlGaCKMcUAIelNPFPxmkx60hjaMU4gUhHpQAw5p3WgDPelK0AMK80xo8HI4NTY9aCB1oAhSYj5XFTg5AxULqDTQWj78UgJzSAfNQjqw4paYC0uRTaKBDj1pOvSjFLQAlJtp1HOaAG4waXPrTiKaaAAUEUYpx6UAMHvTh1pppRQA7FHaik70AKtI4FApSKBkWKeAAMd6THNGaAExSZyuKcSAOTTGb0FIB+R0ppcDjrTNpP3jS4C0AGWbjoKPLB5PWlHXIp1ADQMClpeKOKAG4oNKSKTrQMQHBpcZpCQDyaTf8uAM0AKelIR3oyx9KXb6mkAjYIFA4FOA9qbQAimnYyKQetOHJoARRRzTulHemITnIJp280nWnFaAHAjZgDr1qBlJqdBtHNI655FMRABQRTiOaTGaQxBmlApwXim4PamAc0uOKXBxRg0ANxUuDtzTQvPNSAjp2oAgK8Zo5708jBpDSGJjtT4zzjtTaBwKBDz6UDgYFIASRRjnrTAUg4oHBzilB4pOMc0AO6n60jcU4YI4qNjzQAoppGDTl4NOOOMigCMAmn9qDx0pB0NAC5zQTTfxpsh+XA70ANX5iW65qQUxRgU4DIoGDDnigdKcTnjFIBQIcKO1GKKYCj86KbmlHSkAdO1IRS0dqYCYzS5xSUDnrQA6kOKWgUAIelFBooAKF9aUjIooAUZHNGc0DpiiqJDvigkfjTSewpB+dADup5oBpBS49BRYBcmk5NH0o6UwGkUhQU+g/SkBAyZ71r+FARqkvp5J/8AQlrO2+1a/hpcalIf+mJ/mKTQyhqBP9oXP/XZv5mq3WrF/wA6jc/9dn/mar4pFCilJpKKBC59qMUUtACUlLScUCFo70tJ1oAUUGkpRQAlHOaXHNJ1oASlA9aKKACl9qSimAuMUUmaTOBzSAU0ZoGCKMYoATNFFITikA4D0paRTml7UwG9OtIaU0h4GaQCYzUbrkVIDTTzQMgAaM5GcdxUyShhSMKiKkHK0gLIPNKKhjfPbFSg5pgPxSgU0UpNAh30pKM8UmaAFJpBzRnmjIHSgAxg07PFNNLQA3PNBFHGadQACjvSA07NABSUZxzTS+elAAT6mmkk9BRt5zTulADCnfNB6VJ1/GmEYNA0NxmjFOxgUdBSHcafc0vSlJAHPFRM4zhQSaQD80hYAcmmAOw5OPpTvKA9zQAm/J4GfrRhj3x9KdilA4NADdgHOKCPSnEHbim9KAFWlNNBwTQWoAcDimk96XNN5PegBc5NKDim4xThQA7rzS4pBTuo6UxCfSlzQBQetMA3U7PybfQ5pgGKXjNACMM0gUCnexoPXrQA4Y7Uxsg8UoPNLxQA2jtQcZ4o6CgBM4NL16UmMnmlAxQAvUc00qadwKOvOaAG7cc5pOpxS9TS8E0gFHA60nbNLngilOMUwEzxRyaTqaM5oAUHbSHBNGaO1ADlGOe9Ozmox70/PFAAeRTeAKWkNADe9MzufPpTnIUEimKMCkMf2p69OKYKcKYC0Z9KBS+lMQZoOaKD0pANzSg0h9qTvigY/wDCkzmjJpM0wDFLmk60oFABnilBoApcUCA8mijHNGKAAUooAo7+9MTCkIpQKU0ANxnrQPSlNA5piDkUUtGKAE96T6U6jHFADe9LRgikpgOrV8Nj/iYSf9cj/MVk+1a3hv8A5CEn/XI/zFJ7AZ1//wAhG6/67N/M1XHWrGoH/iY3P/XZ/wCZqGpLA0YpM0ue1AgPpSGlJzTc0ALR1pM0tAC0Y5oGKKBAOtLSUUALQaKM0AJSnpRQaAE6U3Oafjim44oAB15owc0CloAKM8UGkzQAvamdqfnimnrSAQHFOz6U0A07igYHmm9aUjvS9RQMaDimkYOKeaTFAhtNIzT6B70gGBc9KcOD6GnYGOKQjNAxQc0uabnsaWmIUmjrSdqAaBhzzSj6UhJxSrQIeBSGjNBOaBCA0UU7jFAxOB1pCwX3prMScCnKi455oENOWOTTenFSMOaaRQAc+tOX360gHFKvHJoAWg0xpADxzTG8xhnOPYUAPZ1Ucnn0qMs5PyjA96cqYGcc07ApDIihPU5qTaBQwFBFA7hwKDSDk0jnn6UCAnmgN2IpvSjoaAH8U3GaQ9adkgUhiBc0uMcUgPNSYpgN2+lNxg08ik70BcFB5yKUqMUoFLQAgFHNLjigEg0xCA84o6GlAG7JoI+bPagBDR05oyKODQA4A4z1pDTs8Ypp5NADec0oNKRSAZoAWlIpOhpTQAh4oPWmkGlNAATSE54FIW7CgcUDF5Aopc5FIKADPNLkU3OaTNAiTIxxSU0NzTutABkUD2pCKAcGgB9HHrTaWgBT0ppoJ96axxQAxvmfHpThzSCn9BSGA9MUtIozS4NUIWij8aUUAFB6UUlACbqXv0oxSd6QxcDOaOKMjFJ3pgKKXHtSZ5pc0AKDjrTuMVH2zS5pAOpKAaMimIDxSgE800daeMYoABR35ope1MQlBOKKQg0xCg0tNFL2oGAoozRQAHmkpaDQA2tfw3/yEJP+uR/mKya1/Dn/ACEJP+uR/mKTAzNQP/Exuv8Ars/8zVfNTaif+Jlc/wDXZ/5mq/JpFDs0m6mk0ZoAeTRk0w0opAO7806minVQhR70YpMilyKBBQKAaPrQAE0A0lFIB1LTAad1NABSH2p2O9GKAG0pGKU8c0ZFAhMUmPenU2gY2jFLil+tABik4Ao6Gg8igYhPpSZpp4NLQMceaMccUnXgUdKQgPSkxSZ5p3GKBiCncdKTHpSmgQjDIpue1OJppGaQ0KG5paav607rTAUUYpBSnkUALSZpR0ptIQZpwOaaBmnAUAKFxT8AcU3gCgsAOaYhW55pjEAZNNMhbhfzpfLz1OTQAzfnhRn60BCfvHNSbcUmKQxAoFOHA9qQ0CmAvXrSEY5opeMUANxmlFHI+lFAABhulNcYY+lO/Gg9KAIcUEc1IVFAUd6Qxm3P1pzYGBSk4GBxTetADtvOfagE+1CnBwaUL+VCEDdKQU5jmmDimA8dKU9KQdKDTAM5FIaO2KD1pAGccmhmJFI/BxTSKAEzSq2KbigH0oAmxkZozSIcqaRjzQA4EetGQDTcikJoAduzzS54plO6igB2KYxweKdnFIBkmgBoHFBB6in44pD6UDuNpV4NKOtLjjAoEMK85oxTwKMUDIsc1IoOKNozUg4Ax+NAiJuKTrUrLk0zZzQADpSE0/YMcdqjYHNACZ5ppO5vpSOT0HU0o64oAcBTsUgBzin9BQMXgduaDTSaAR60xC0A0HpTeRSAfSd+lKDxSGmAh60UE8dKTNIYUtJTqAE/SlA4oxzmg5oAUUlAoNAB178UcUmKKAFzzTh7U0U4cU0Id1oPSikJpiF96TqKKKYCc4opTzSDFAC0UhFLQIKPrRmigA/Wtbw3/wAhB/8Arkf5ismtbw3/AMhCT/rkf5ik9hmVqA/4mV1/12f+ZqAVY1A/8TK6z/z2f/0I1BihDEIpMc08jikA5pAIFJNPxgUAUUAA6UmeaXvzRQAhNFL3oApgKKXrmgdKO9IQmaWk70c/nQMO9OFIFpc4oEKKU0lGaYg9qQ0ZxRmgAJopDxSUhjs0h45oNJQAUh68UGjNAxCPekFKRSCgBRxQT6UcUmeetACAetLilwKOopAJyaWlApQKAEIpu2pD0ptFhjMU4UcHpSZxSAd2pDmlz+VB5oATNGKT60CgBw4NKSByTio2kwcLyaApb7xzQIUyEnC/nQFyeeTSgUucYwKAHYA7Uo5NKeRSAUwFxSU6mnrQIacZNAFLjmgUDExzSNnI9Kd2po560ALn1oNIRijOaADHNDdKUUtIBuOPegj0px60EAmmBGQaAKeRSYoAbt70tO96QjjrQA09aMUuKCfagAFKaQHPWlFACfSlxzmlHNGcH1oASQZwwqPPrUp6U0jmgBntSY54p5X0oCZPNAxYhnjp70MuDincKOKRjn60CG4pKeBSEUANpRkcetGMUqjHJ60AABzzTsUnFBNABSHrR1pRQMMUHrTutJtyetAgAzzSHg9aU8cU3HOaYCin8UmOKKADrSUvFNJ59qBDgcUxsU4Gmsc8UDGhRncetOKDrQBTqQDVXvTiPQ0HgUnemA00UEcUYoAKOaXFHegBOaXdR7UhoATNKOnvTaAeaQx44paRTS0AKfSkNBPvRjNADad7UhFFAC0YpRRTABS5pMUA0CHUUmcUuaYgzRSUdKAFoPqaB+dFMQnvilx60UUALijtSZ4oznmgBeK1vDn/ACEJP+uR/mKyO1a/hz/kISf9cj/MUnsMydQ/5CV0P+mz/wAzUIqXUD/xM7r/AK7P/M1DnNIY4cmnFaavUU7NMQg/nS44ozRQMAKXFFL1pCG0tHelpgA6U00uaOtADeaKXBpaQB7UUUY4oAUHFL9aTNGaYg60YoWlNADTSUp5pmcHBpWGLRS4oxg0DEo7U49KT2oAbSU8gUhoAa/C01efrTiKAcdBQAZpelNHXmn9qQBnjNKOaMUA0ABJFJmnGm9KADtSYyKO9OJFAxnIHNLnI9qQ8DJNR7i3CjA9akB5dVFNwz9eB6U5UA570/FMBFQCnYwKQGnDmmIaM5oHWnY4pvekA/PalpvSl96YDu1NpwNBHFMQ3BptOpppDDHFNA5px6Ui8GgBTwaTFL1pR1oAaDinA0MM0nSgQ40U3NL06UAB96aeOaG56Up5UUDDOelITQoOOaU80ANzRilxS0WATFNBwaeBxSbec0AKDkUd6MUfWgBCOKByOtO7UgoAMYpKcTmk70AJk0vWmnrTqADgUHgUhPtQOTzQAmCTmnYpT0ooAb0opfakPHWgBPwpRSCloGKOaXoaT3o75oEKcYxSAUpoFACmkoPFHvTEGCBmmk808VG/XAoATdk4FL0oUYFLikUABpRQOKTtQIGNJS+1HamAnaijPtS4oEIKMcUGjtTGN70UtBoENpKWj8KkoM04Gm4paAH0E0Uh6UAGaB1ppFAoEPzSg03PtRmmA7HFAFHalHFMBO9LmkJoA5oAcP0ooxR0oEHajFHel68UAJiilOaQ07gFJ3xRnpRmgAzxWv4b/wCQjJ/1yP8AMVkZrX8N/wDIQk/65H+YpPYDJ1Ef8TO6/wCuz/8AoRquKsah/wAhO6/67P8A+hGoRzQMUD86Uc0gpQaAHAZpcUgNPoEFJ0FLjFBoEJRmkooGJmlpKXFACikpAacMUgDtR7UZxSYoAO9FKRSYoAXHpR2opT0piENNYcU49aTrzQMbnjFGfeg0YzSAUdaWkApe9ACGkxzS0uKYDTSYpxo6cUmMbilHSjFB4oAM0A4pKBQA7OTSYo6U0sMc/lSAdk54phfsvJpNrP14HpTwuOgoAYEJOWOafinelJ0NFhgKXPtSHrQPSgQuKO9A54oP0oAM8Umfak70o96AHDPrR0oHNHQUwHZpc80zPFOGKBARmkxx0pxpp69aAGmgdKUijoKBh2o6c0CigQdRmkxSFuMUoORQAY4ozzS+1GKQCUZoOaMUDDPFBGKB0paBBgY4pDnrThSkZoAZmjrSY5xRigY4EUlIaWgApCaXNIwHSgBaMc0i4NANAC96DxRmkHXNACYzyaUdacAKQ0ALSChetB60AGO9KRkU3NOBoAYwwaAaVhkigdKQw6jigHApcUlMBwNLTR9KWgQvWk70vUZxSfdGaAAnaKYMnmjq2TTsdKYBS0Y9qCKAEo6igUo5zQA0UUoXHWkIoEBopOaKYC5ozRRQAhpOtOooAYRRTqQ9aQwxQBzQKcKQxe1NNOpDTENo707FJigBKMfhS45ox70AKDSikAoBNMB1FJml60AHNHvRSigQUoPfrSZoBpgLxSUUGgBOlFKaKAErX8N/8hCT/rkf5ismtbw5/wAhB/8Arif5ih7CMnUP+Qndf9dn/wDQjUIqXUP+Qndf9dn/APQjUA/Skhj+KKTNLQA4U9TxUY96cPagGPycUYpBS+9AhDSd6d2pMUwE7UUvtR2pAJijp3oo7UAAzSgUlLmgBc+1FBo6jmgBPwo7UUGgLiYo7UtLgUgGGjpS0CgYYGKCMClIpDzQAUn0oo7cUAH1oGKRjSA0DH0jfyoB5pSeKBDMUmaUmkKlutAxu4k/KPxpQKcFAo6UgDFLkimgHNOIyvuKAG5NOzSYJpTgUABptLmjNAArZp2MimjinA4pgJilHpQRQKAHr9KGGKVaG5oER9adnigikoAXNGRmm0uM9KAFxQaWmk4oAOMZpD900tLmgZFu4ozTio7UgUmkA/8AhzQOAKOKMUxB1pDS0hHFACUppBxmjIpDFB5p2eaaOtOxxmgBCOc0YpaKAGHOaWlIpuBmgA+lL1HNFHegBwAHakOMmgkZpMc0CGnrTs4pcDPShh3osMbk+tLnNNNC9aAHH1phNPcEY461FQAuaKaaUUAPBpwpnSnjpmgA60uKO9LmgBMGjFLQcY560AITgU0nPWkbrmlHvQAYoxS49qMUxDgcig0DpSGgYlKvFHUUAY5oACaQe9Ocd6joEPFGKQGgnimIQjFApc8YpMUDDvRQOKDQAhIpKWikAlPByM03FO7UDAnijNHakpDFxxRijPagCmISinEU3FMA70HmlxzRQAmKd1pMcc0tABjijNFITTEGTRRRQAA0vXrSdaXNACjml6U0HmlzTEGMVreG/wDkISf9cj/MVk/hWt4b/wCQg/8A1xP8xQ9gMfUT/wATO65/5bP/AOhGoRUuon/iaXf/AF2f/wBCNQAn0qRjwfxpwqPvTwaYDhThTRS5/WgQ7mlzTRSjOKAFzS8Gmn3pRQA4DigjNAPFGaAG0UE80GkAUUmaXqKAEo5o70ooABTsUzOOBS7qAsBFHGKD0pB1pDFopcUEUAGaafWlFB6UwG0EU7BpMZpANPPWm4p5603ODjigYe9BJP0pevWjqKAADFKMZpKUCgAIxRS/WgDmgBtKKU0gGKAEyc8U09akAApuOaAEpKU8UYoGAp3WjANKaQgxQKWimIcKDSDpiigBetNIp3SlxQBHSig/ypccUAIaTtzTsUmKBhnimqaXtQPQCgQlFD+lNBpDFJzxTh0pmcGnA+tACjBpDSfSl60wGj1pQKO9OFIAxjpSg8UHrTScGgB3vS9aaDTgaBBim4qSmEUAhPwpCdppelNPNAxetKOaBxQKAFxR2ooxQIbt5xQBinU3vQMVvmXmoyMc0/ND8cUAREjNAo4J5pydMUhigE0/0pATRmgQuRmm5pCabk5oGP3UlJS4piFpy4I6U0cU5aAF/lQBk+lHaigQUGijrTATBpR0paOtABximEU/pSUgGbcDNAFPxxSAcUwExSU/FIRQA3tR2p2OKMYoAZj2o78U40gFAAASaWl6UmaBiY9aWgikxzQAtFJ06ClFACkUUZpe3SnYLiGkpaKBB7Uc0fSigAPSk70tJTAKKKKADHp0oHWjtSZ5pgLS4pKTOKBDia1vDRzqMn/XE/zFY+a1vDH/ACEpP+uJ/mKHsBj6lxqt3z/y2f8A9CNQA89K173QdSmv7iVLbKPKzKfMXkEn3qL/AIR7VP8An1/8iL/jU3QzPGacueKv/wDCP6p/z6/+RF/xpw0DVB/y6/8AkRf8adwKK0uavf2Dqf8Az7f+RF/xpw0LU/8An2/8fX/Gi6EUKXNXhoWpf8+3/kRf8aX+w9S/59v/AB9f8aWgFHqaUDmrw0PUv+ff/wAfX/GlGh6j3t//AB9f8aAKVHSr39i6j/z7/wDj6/40f2LqOP8Aj2/8fX/Gi6EUCKaa0f7E1H/n3/8AH1/xpDoeon/l3/8AH1/xouMz8etLir/9iaj/AM+3/j6/40v9i6j/AM+//j6/40AZ+KCBjArQOiaj/wA+/wD4+v8AjSf2JqP/AD7/APj6/wCNFwM2nVoHQ9R/59v/AB9f8aT+xNS/59v/AB9f8aQyhQDV/wDsPUv+ff8A8fX/ABoGh6jn/j2/8fX/ABoApCg1e/sTUf8An2/8fX/Gj+xNR/59/wDx9f8AGncCjRV/+xNR/wCff/x9f8aP7E1H/n3/APH1/wAaQGfQcCtH+xdR/wCff/x9f8aYdD1En/j3/wDH1/xoAzjkml2gVo/2HqOP+Pf/AMfX/Gk/sTUv+fb/AMfX/GgDPpMVof2FqXa3/wDH1/xo/sLUf+fbn/fX/GkMzxT6ujQ9SH/Lt/4+v+NOGiaj/wA+/wD4+v8AjQgKBFA6VfOiaj/z7/8Aj6/40n9h6l/z7/8Aj6/40xFClIFXv7D1H/n2/wDH1/xpf7D1H/n3/wDH1/xouBnnpxSVo/2JqX/Pt/4+v+NIdD1I/wDLt/4+v+NAGfjJpcYrQ/sPUf8An2/8fX/Gj+xNR/59/wDx9f8AGgDPxSA1onQ9R/59/wDx9f8AGk/sPUv+fb/x9f8AGkBRoq//AGHqP/Pv/wCPr/jS/wBiaj/z7/8Aj6/40AUKTNX/AOxNR/59/wDx9f8AGl/sTUMf8e//AI+v+NMCkDQTV0aJqP8Az7/+Pr/jSf2JqOf+Pf8A8fX/ABouIpUlXxomo/8APv8A+Pr/AI0f2JqP/Pv/AOPr/jRcZQpOtaH9iajj/j3/APH1/wAaP7E1D/n3/wDH1/xoAzm4FNH1rSbQ9RPS3/8AH1/xpv8AYWo/8+3/AJEX/GkBnk54NA47c1of2HqX/Pv/AOPr/jQdC1L/AJ9v/H1/xoGZ5HzUEHNaH9hal/z7/wDj6/40DQtSH/Lt/wCPr/jQBnDOad0FXxoWo5/49v8AyIv+NIdC1LPFv/4+v+NAFA89KVTV4aFqX/Pt/wCPr/jSjQtSz/x7f+Pr/jQBRJpO9aH9h6j/AM+3/j6/40n9ial/z7f+RF/xoAojil7Ve/sTUv8An2/8fX/GlGiaj/z7/wDj6/40CKOaGOBV46JqP/Pt/wCPr/jSf2FqJ62//j6/40AZ4BIyetHtWj/Ymo4/49v/AB9f8aQ6HqP/AD7f+Pr/AI0DKFAPpV46Hqf/AD7f+Pr/AI0g0LUwf+Pb/wAiL/jQIp896TdWg2ialji3/wDH1/xpg0PU/wDn2/8AH1/xoApZ4pD1q+ND1L/n2/8AH1/xo/sPUv8An2/8fX/GgZQHvQ2MVfOh6l/z7f8Aj6/40f2HqWP+Pb/x9f8AGgZmFfTrTgMDrzWh/YOpf8+3/j6/40f2Fqf/AD7f+Pr/AI0gKH40h4rQ/sHUs/8AHt/4+v8AjR/YWpHrbf8Aj6/40AZ2cmjpWj/YOpZ/49v/AB9f8aP7C1L/AJ9v/H1/xoEZ+KcKv/2FqX/Pt/4+v+NL/Yepf8+3/j6/40wM/FOFXv7D1L/n2/8AH1/xoGial3tv/H1/xoEUaKv/ANh6j/z7/wDj6/40f2HqP/Pv/wCPr/jQBQ5oq/8A2JqP/Pt/4+v+NJ/Yeo/8+3/j6/40AURSir39h6j/AM+//j6/40f2HqI/5d//AB9f8aAKNBFXxomo/wDPv/4+v+NH9iaj/wA+/wD4+v8AjTAodqDV/wDsTUf+ff8A8fX/ABpP7E1H/n3/APH1/wAaQFGkxxWh/Ymo/wDPt/4+v+NJ/Ymo4/49/wDx9f8AGmBQpK0P7E1H/n2/8fX/ABpP7D1L/n2/8fX/ABoAoUhFaP8AYmpf8+3/AI+v+NIdD1L/AJ9v/H1/xouBn9aMVf8A7D1L/n2/8fX/ABpf7D1L/n2/8fX/ABoGUOc0grQ/sPUf+ff/AMfX/Gg6HqX/AD7/APj6/wCNAGeelG7ir/8AYepf8+3/AI+v+NJ/YWpf8+3/AI+v+NAikPWlq8uh6kP+Xf8A8fX/ABo/sTUv+ff/AMfX/GmBRpK0P7E1HH/Ht/4+v+NJ/Yepf8+//j6/40AZ9HetD+w9Rz/x7f8Aj6/40f2HqX/Pt/4+v+NMRQxSVof2HqOf+Pf/AMfX/Gl/sPUf+fb/AMfX/Gi4Gdg0Vof2HqP/AD7f+Pr/AI0n9h6l/wA+3/j6/wCNAFAikrR/sPUf+fb/AMfX/GkOhal/z7f+Pr/jRcZnZo7Vof2Fqf8Az7f+Pr/jSHQdT/59v/H1/wAaLoRnmtjwx/yEpP8Arif5rVf+wtT/AOfb/wAiL/jWjoOmXllfPJcQ7FMRUHcDzkeh9qG9Bn//2Q==;" parent="9QXBRPPnokm7t-XI1kbM-1" vertex="1">
          <mxGeometry x="-20" y="19.91999999999996" width="200" height="150.08" as="geometry" />
        </mxCell>
        <mxCell id="9QXBRPPnokm7t-XI1kbM-90" value="" style="shape=image;verticalLabelPosition=bottom;labelBackgroundColor=default;verticalAlign=top;aspect=fixed;imageAspect=0;image=data:image/png,iVBORw0KGgoAAAANSUhEUgAAA/4AAAL/CAAAAAD63EMAAAAJRElEQVR4nO3d25rTRhCFUSkf7//KykXCHDzyYDxW7+qutW6AAIPlrl9qy4ZsGwAAAAAAAAAAAAAAAAAAAAAAAAAAAAAAAAAAAAAAAAAAAAAAAAAAAAAAAAAAAAAAAAAAAAAAAAAAAAAAAAAAAAAAAAAAAAAAAAAAAAAAAAAAAAAAAAAAAAAAAAAAAAAAAAAAAAAAAAAAAAAAAAAAAAAAAAAAAAAAAAAAAAAAAAAAAAAAAAAAAAAAAAAAAAAAAAAAAAAAAAAAAAAAAAAAAAAAAAAAAAAAAAAAAAAAAAAAAAAAAAAAAAAAAAAAAAAAAAAAAAAAAAAAAAAAAAAAAAAAAAAAAAAAAAAAAAAAAAAAAAAAANDOnn4AXOXYNuvLt4zHmo7371pi7jEbCzpufmyROfcr/QB4sdv24S4XhqXcad8qc8pgrOEP13zLzBlzsYAH9vvWmRP/pB8AP/bIq313BDgh/yb0z1c2hXM6PizcX5b99JIfpmU1FnRC//e+f/rR33hi1X//KQZmJVZzPm+970/v6f+47MfNr/n4Z7IMqzmf9+T3p1/Rf7vuX1v3GeI1ufU3s+fv5333O7/+nPuGi5L/dK5uUf19yH86F+++jy/fP+7+PJOTf1OPVXyc/Er9r8ONnPm8qL87S//QVzc2a3D1b+u888d3BczPaXw+L2zvZPkf/OoGZwVWcTovvvLeTsCjX97kLMDmfzav3nc/+/XO3hVgMs7hMzl+8Dm/+84/3fvA7/v4dw/8u8IzsmDTuPJCe/bp3h9+JSZg8z+LS7fZx823P/9KzMDJehbTdGWk5uHqP4lp6p/okeJUXd3ENRmu6qxQaRO3/x/zVZr/y08dn/+FnenLpz5n5yI+/ws7y7RvvkqzPDUs0/stA1aZO/9catnz2hLkz7X0X5j8S1i5kZWPbXbyr0AhRMi/APWT4cZsWoP2DVlVrv5RR4f6KcuJOadN+YasKlf/GPWTJv+UNvVTl/xD1E+ejVlEp/iNWF2u/gnqpwT5Q1vyh7bkD23JH9qSP7Ql/wR3wylB/hF9+u9zpDOSf4YqKED+IfonT/5cyVmuNPlzpU4fb56Q/EO6dNHlOOckf2hL/tCW/DP67In7HOmE5J/hjjgFyB/akj/Xss8pTP4hbarw2r8w+afonzj5x7Tpn7LkD23Jn6vZ/Zcl/5g+VfQ50tl4AZrSrAmDVpFVSWmW/2bWCrL5Z5R+J7zy5B/SsYWOx1yb/KEt+UNb8g9peR/M7r8Y+UNb8oe25J/ScvdPLfKP0T9p8s/p13+/Iy5O/kFqIEv+SW379w5gDW0HsIhmHezb9nbMRi/PGmQ1y3/bPxyw2Yuz+Wekbqe74uQPbcmfFDuBOPlH9S6g99FXIP+k7vPf/fjj5B9k+smSP7Qlf4Lsf7Lkn2P2CZM/tCV/gnzuN0v+0Jb8oS3559j5egbC5A9tyR/akn9Q+72vTz6EyZ8g/We1vwBFmf5tM4NBnvog9f9mDDN+pR9AW9onTv4R2qcCt/4S1H/DE5Ih/wDDTg02/6NpnzJc/QdTP3XInwK88Zchf2hL/mPZ+1OI/Meyyz3jWQmRP3HqT5E/aeqPkf9gZv2WZyRH/mSpP0j+ZHkvJEj+hOk/R/7QlvyhLfmTZvcfI//BzDp1+Pv+I2mfUlz9B1L/Ke/8x8gf2pI/tCX/cez9KUb+43iNSzHyh7bkD23JfyC7/zOelRz5Q1vyh7bkP5B3/k7Y+wfJfxz1n1B/kvxJUn+U/KEt+Q9j70818h/GPvcrz0mW/MlRf5j8oS35D+O1P9XInxh7/zT5k6L+OPlDW/KHtuQ/jL3uZ56PPPlDW/KHtuzABvLO/xtzV4JlGMsZYNs2Y1eFdRjOGcDUVeG1/3BmnyrMYkDj6/9+GLlCrEVC2/6NWy02/wldK+h63GXJP0IHVCD/DP1TgPxD9E+e/KEt+TNO23c8qpJ/it0/cfKP0T9p8mcgu/9a5A9tyT/GlZA0+ae0rN/9jlrkH9KyfoqRf4b6KUD+jGPvX4z8GUb91cg/ouXeX/3lyB/a+pV+ADTh2l+Qq39Evxb6HfEM5M8I6i9J/tCW/DNcDSlA/iG9+u91tPOQP9dTf1Hy53otP+U0A/lDW/KHtuQPbcmf67n1V5T8oS35Q1u2ZTEN3g3bj82IVWZtYtbP33BVZ/PPVdRfnvxj1EGa/HP0T5j8g9buf+2jW4P8k1YuZOVjW4ZFSlv1DQCTNQGLVMKC5wCTNQGb/xLWa2W9I1qR/GtYrZbVjmdR8i9CL4wn/yr0z3DyL2Ol/lc6lpVZp1IWeQfAVE3C1b8U3TCS/KEt+UNb8q/F7p+B5A9tyR/akn8xdv+MY9oKmv7df1M1CQtV09xnAFM1CQtV2LTnAFM1Ca/9C1MR15I/tCV/aEv+0Jb8eb1p71l2I39oS/7Qlvy5gN3/HOQPbckf2pI/F/B5xTnIvzIVcSn5Q1vy5/XsWiYh/9J0xJXkX5v+uZD8i9M/15E/tCV/Xs6OZRbyL+7BT8/ve7q59J/PE+S/hH1L97frf0LWrLiHrv77X/zaa7w/AhM1EYtV3CNJvy1irH9jNCeb//nl28s/Ap4if2jLebu6P23oP63gcfrfL3lNsH/4yqZoUhZuAvfz/bJ85z1e0P/7/QYjNC9rN5XfdR/bdnftTnp8Tf7u7i/HQs7mmavtS/I3Kuuxpi289b8/fS4wKQty57+F/cO3z3Ws/hVZ1TaOn3w6yJwsybL29LdnAHOyJMvK9t/d/K+fGTj/FAHrsKy8+/p+4nfvMAIAAAAAAAAAAAAAAAAAAAAAAAAAAAAAAAAAAAAAAAAAAAAAAAAAAAAAAAAAAAAAAAAAAAAAAAAAAAAAAAAAAAAAAAAAAAAAAAAAAAAAAAAAAAAAAAAAAAAAAAAAAAAAAAAAAAAAAAAAAAAAAAAAAAAAAAAAAAAAAAAAAAAAAAAAAAAAAAAAAAAAAAAAAAAAAAAAAAAAAAAAAAAAAAAAAAAAAAAAAAAAAAAAAAAAAAAAAAAAAAAAAAAAAAAAAAAAAAAAAAAAAAAAAAAAAAAAAAAAAAAAAAAAAAAAAAAAAAAAAAAAAAAAAAAAAAAAAAAAAAAAAAAAAAAAAAAAAAAAAAAAAAAAAAAAAAAAAAAAAAAAAAAAAAAAAAAAAAAAi/gX/PDG1XGCh+YAAAAASUVORK5CYII=;" parent="9QXBRPPnokm7t-XI1kbM-1" vertex="1">
          <mxGeometry x="1325" y="24.95999999999998" width="200" height="150.08" as="geometry" />
        </mxCell>
        <mxCell id="9QXBRPPnokm7t-XI1kbM-91" value="" style="shape=image;verticalLabelPosition=bottom;labelBackgroundColor=default;verticalAlign=top;aspect=fixed;imageAspect=0;image=data:image/png,iVBORw0KGgoAAAANSUhEUgAAAhYAAABSCAMAAAA/z22yAAAAAXNSR0IArs4c6QAAAARnQU1BAACxjwv8YQUAAADGUExURQAAAAAAAAAAAAAAAAAAAAAAAAAAAAAAAAAAAAAAAAAAAAAAAAAAAAAAAAAAAAAAAAAAAAAAAAAAAAAAAAAAAAAAAAAAAAAAAAAAAAAAAAAAAAAAAAAAAAAAAAAAAAAAAAAAAAAAAAAAAAAAAAAAAAAAAAAAAAAAAAAAAAAAAAAAAAAAAAAAAAAAAAAAAAAAAAAAAAAAAAAAAAAAAAAAAAAAAAAAAAAAAAAAAAAAAAAAAAAAAAAAAAAAAAAAAAAAAAAAAAAAANr6i6wAAABBdFJOUwAECAoQFRgZICEkKCsvMDY3ODxAQkdIUFhdYGJobXB4gIaHjI2PlJednp+nr7K3uL/AxcfMzc/S19/h5+7v9Pf5r3SIYgAAAAlwSFlzAAAXEQAAFxEByibzPwAABltJREFUeF7tm2t700YQhW3jhqShaYPTOASDRRogkEsFlODgBGf//5/qrLR2dJndmZXk5qk57we8cjQ6MzujvUimBwAAAAAAAAAAAAAAAAAAAAAAAAAAAAAAAAAAAOCnZji9WqQjd/AI/Of6my/YO76amVkydEdN2JsbYj5whyHaizFE6HfjwE8g+MXMUhK9bn6dw8V8cnhhzGt37KcDMQa9fkcObL7g8MZcDXrDmTEX7pt4DtOtXm8wN1fu2EtzsdFo17UY1PqdREtsviCV4B597NMIFeh4Dedm5lpemosZ89G1vCj0O4yW2GBBMr/JGifHqnkrwNRdyU8LMUVZyPpdRktssOC5or+VHItOtxBTWMr6XUZLbLDgnTHHrtmWI9HpFmKKaGX9WAem6blrsXQuKOitIUIPu7TraT/n5Ywkp9uIKcpC1I92IDXGtVg6FxT01hChh2Nj7lyzNReS023EFGUh6kc7IKSpc0GpLLqP0MN7Y1LXrDEYsdh1Lgd5JDgdEpOQy0LWj3YgnKbuBYWyWEOEHq6NOXHNGts0IDF4ZLcXotMhMQmxLBT60Q4E07QGwXBZrCNCniGleezaNaLKYvCF/nTtDniCYhJSWSj04x0IpWkdgsGyWEuEPCO6zLZrtyOhShbGr1ZiUlko9OMdCKVpHYLBslhLhDxWyjXbsW/M/EhwOl5smKygG8W1koTZgWn0IxwYTjOhG2Oyz6S+uO9WUNbrOsIgF4oFvoYBBTQeC07Hi6mnMZV+hANTp7Sk9iqiY0FRr/MIg9wZc+Sarfho3Tk2xYcx/Tc/fnFNR1isfn5EWVT1d//6fEsnfvrNHecEHKgYvM50HqilqSrYP/hA9vd6wbKBqMf1cK+3c1u5vpTPmgELTUW6N/gCY7rOkJx+qNT+5NZU0hwUY84vE7wNqvqnxnx9RoVGY7L7xhJwoGrg9ua0rs8bW9m3D1QFXxlz9iRGsGIg6TE9TPQvK1Ug5bNmwPM2+AJ/K2V56/78wNbcmMNeb/Lg9J/21qukOSTGnV8mVBY1/VPz9Ql9UC/c/55/Ywk4wBt4l4DrEvQuOes9bHlJnVbKcjifjAHPjZkFiks9hFM0dnBLlmPfTnp/9utlNc1+Mf78MqGyqOpTp+fBUzcUeiEQLW/gTdO6BL1lURO0PDd/V+aEcD4ZA5axWRR/HLg/L/9UUDta0MQ4t6PeybJidt49s4GX0xwQY8+vECiLmv6KUqcL0WboyiIkWLj5dYKa0YIVHHz/8Uc5y4Jg3YCFRqbiVm84WzR6ybK3cH35sdRLlTSLYo3LwqNvKWZZFa2qLPyCNCdkc0OGRrBk4C0LXpAGnPIKUhKsGfDQbsYs0qmz3UrNJG/FMZgtF84npWdwlTSLYk3LwqdPDL4XrqmJtmRAsGnyC/ZPi/e+QrBs4CsLXvAlLVbLWRYE6wYc+/ZZasbN26PR6OSu4W//aOe0yB+sJfbl3SBxs1spzQqxpmXh0ydof7HsBF20BYMMNk0+waeTf+zuwqEQLBtY+LJgBXduaZgpZlkSrBmwTOx7l5T+WXEVWq14sTvuad6cGPP+6Ho5vRXTrBFrWBZefbvCWm0XddEWDHLGSX1h7xGkDjfm2+p9hCxYMcjg9HjB/qUdZgpZlgRrBixTc5d5sP2aRqiMi0ZVsW+9cZZb1qmb5Xv3QppVYs3Kwq9vu2B5v+iiLRj4CQj2D1LzLZ8TdIIFAz+8oJ0RXJaf29WJKFg14Nk7Xz0x2U1oe3EVHlu8jJIk2Xft3lGaPvynlUKaVWLNysKvb5O8DF/lQNHAj1+QWK1NtN1bXcwwsILP85WqzXL/0jYlwZrBYyGkuYZwfpq6gVQJdUBc9NEGHLVpSCLaIIM2MAUUbkcbrI2OyyISug3jgo82YLEjjmvqiDYoYW9+19QRbdA5j1oWlecBMtEGPCgLiUcti5fLi50qOz3aoER/8i6vKZoTVN0ebcCDsohi59Y9JTq41WU52qAMjTV5b2uDiDbg+d+VxdMXtLQ50/9+LPb8IMUFlmpBF21QgezvX9DHG/PtmfsqTLQBS/9V9nsAPdEGnVLo5dKzXR+x50vQPbFCleVogyovPny2tp/G2vVJtAFD3m0Ro020AQAAAAAAAAAAAAAAAAAAAAAAAAAAAAAAAAAAAAAAAAAAgI2i1/sXV4cwxEqyu1oAAAAASUVORK5CYII=;" parent="1" vertex="1">
          <mxGeometry x="980" y="-240" width="534" height="82" as="geometry" />
        </mxCell>
      </root>
    </mxGraphModel>
  </diagram>
</mxfile>
